<svg width="141" height="36" viewBox="0 0 141 36" fill="none" xmlns="http://www.w3.org/2000/svg">
    <circle cx="18" cy="18" r="18" fill="#666DE3"/>
    <path d="M18 18V5L21.25 14.75L18 18Z" fill="white"/>
    <path d="M14.75 14.75L18 18L21.25 14.75L18 5L14.75 14.75Z" stroke="white" stroke-linejoin="round"/>
    <path d="M18 18L5 18L14.75 14.75L18 18Z" fill="white"/>
    <path d="M14.75 21.25L18 18L14.75 14.75L5 18L14.75 21.25Z" stroke="white" stroke-linejoin="round"/>
    <path d="M18 18L18 31L14.75 21.25L18 18Z" fill="white"/>
    <path d="M21.25 21.25L18 18L14.75 21.25L18 31L21.25 21.25Z" stroke="white" stroke-linejoin="round"/>
    <path d="M18 18L31 18L21.25 21.25L18 18Z" fill="white"/>
    <path d="M21.25 14.75L18 18L21.25 21.25L31 18L21.25 14.75Z" stroke="white" stroke-linejoin="round"/>
    <path d="M49.3155 12.267H51.4103L55.7415 23.5125H53.631L52.5758 20.5357H48.087L47.0318 23.5125H45L49.3155 12.267ZM48.6225 19.0395H52.056L50.3708 14.2042H50.3235L48.6225 19.0395Z"
          fill="white"/>
    <path d="M58.5729 19.1025L54.3519 12.267H56.6357L59.6124 17.307L62.5419 12.267H64.7469L60.5417 19.1025V23.5125H58.5729V19.1025Z"
          fill="white"/>
    <path d="M65.8563 12.267H73.9518V13.968H67.8251V16.9132H73.4951V18.5197H67.8251V21.8115H74.0621V23.5125H65.8563V12.267Z"
          fill="white"/>
    <path d="M80.1605 12.267H85.1218C85.9198 12.267 86.5708 12.3825 87.0748 12.6135C87.5788 12.8445 87.9673 13.1332 88.2403 13.4797C88.5133 13.8262 88.697 14.2042 88.7915 14.6137C88.8965 15.0232 88.949 15.4012 88.949 15.7477C88.949 16.0942 88.8965 16.4722 88.7915 16.8817C88.697 17.2807 88.5133 17.6535 88.2403 18C87.9673 18.3465 87.5788 18.6352 87.0748 18.8662C86.5708 19.0867 85.9198 19.197 85.1218 19.197H82.1293V23.5125H80.1605V12.267ZM82.1293 17.5905H85.0115C85.232 17.5905 85.4578 17.559 85.6888 17.496C85.9198 17.433 86.1298 17.3332 86.3188 17.1967C86.5183 17.0497 86.6758 16.8607 86.7913 16.6297C86.9173 16.3882 86.9803 16.089 86.9803 15.732C86.9803 15.3645 86.9278 15.06 86.8228 14.8185C86.7178 14.577 86.576 14.388 86.3975 14.2515C86.219 14.1045 86.0143 14.0047 85.7833 13.9522C85.5523 13.8997 85.3055 13.8735 85.043 13.8735H82.1293V17.5905Z"
          fill="white"/>
    <path d="M90.4137 15.3697H92.0989V16.9447H92.1304C92.1829 16.7242 92.2827 16.509 92.4297 16.299C92.5872 16.089 92.7709 15.9 92.9809 15.732C93.2014 15.5535 93.4429 15.4117 93.7054 15.3067C93.9679 15.2017 94.2357 15.1492 94.5087 15.1492C94.7187 15.1492 94.8604 15.1545 94.9339 15.165C95.0179 15.1755 95.1019 15.186 95.1859 15.1965V16.929C95.0599 16.908 94.9287 16.8922 94.7922 16.8817C94.6662 16.8607 94.5402 16.8502 94.4142 16.8502C94.1097 16.8502 93.8209 16.9132 93.5479 17.0392C93.2854 17.1547 93.0544 17.3332 92.8549 17.5747C92.6554 17.8057 92.4979 18.0945 92.3824 18.441C92.2669 18.7875 92.2092 19.1865 92.2092 19.638V23.5125H90.4137V15.3697Z"
          fill="white"/>
    <path d="M99.4067 23.733C98.7557 23.733 98.1729 23.628 97.6584 23.418C97.1544 23.1975 96.7239 22.8982 96.3669 22.5202C96.0204 22.1422 95.7527 21.6907 95.5637 21.1657C95.3852 20.6407 95.2959 20.0632 95.2959 19.4332C95.2959 18.8137 95.3852 18.2415 95.5637 17.7165C95.7527 17.1915 96.0204 16.74 96.3669 16.362C96.7239 15.984 97.1544 15.69 97.6584 15.48C98.1729 15.2595 98.7557 15.1492 99.4067 15.1492C100.058 15.1492 100.635 15.2595 101.139 15.48C101.654 15.69 102.084 15.984 102.431 16.362C102.788 16.74 103.055 17.1915 103.234 17.7165C103.423 18.2415 103.517 18.8137 103.517 19.4332C103.517 20.0632 103.423 20.6407 103.234 21.1657C103.055 21.6907 102.788 22.1422 102.431 22.5202C102.084 22.8982 101.654 23.1975 101.139 23.418C100.635 23.628 100.058 23.733 99.4067 23.733ZM99.4067 22.3155C99.8057 22.3155 100.152 22.2315 100.446 22.0635C100.74 21.8955 100.982 21.675 101.171 21.402C101.36 21.129 101.496 20.8245 101.58 20.4885C101.675 20.142 101.722 19.7902 101.722 19.4332C101.722 19.0867 101.675 18.7402 101.58 18.3937C101.496 18.0472 101.36 17.7427 101.171 17.4802C100.982 17.2072 100.74 16.9867 100.446 16.8187C100.152 16.6507 99.8057 16.5667 99.4067 16.5667C99.0077 16.5667 98.6612 16.6507 98.3672 16.8187C98.0732 16.9867 97.8317 17.2072 97.6427 17.4802C97.4537 17.7427 97.3119 18.0472 97.2174 18.3937C97.1334 18.7402 97.0914 19.0867 97.0914 19.4332C97.0914 19.7902 97.1334 20.142 97.2174 20.4885C97.3119 20.8245 97.4537 21.129 97.6427 21.402C97.8317 21.675 98.0732 21.8955 98.3672 22.0635C98.6612 22.2315 99.0077 22.3155 99.4067 22.3155Z"
          fill="white"/>
    <path d="M104.191 15.3697H105.546V12.9285H107.341V15.3697H108.963V16.7085H107.341V21.0555C107.341 21.2445 107.346 21.4072 107.357 21.5437C107.378 21.6802 107.415 21.7957 107.467 21.8902C107.53 21.9847 107.619 22.0582 107.735 22.1107C107.85 22.1527 108.008 22.1737 108.207 22.1737C108.333 22.1737 108.459 22.1737 108.585 22.1737C108.711 22.1632 108.837 22.1422 108.963 22.1107V23.4967C108.764 23.5177 108.57 23.5387 108.381 23.5597C108.192 23.5807 107.997 23.5912 107.798 23.5912C107.325 23.5912 106.942 23.5492 106.648 23.4652C106.365 23.3707 106.139 23.2395 105.971 23.0715C105.813 22.893 105.703 22.6725 105.64 22.41C105.588 22.1475 105.556 21.8482 105.546 21.5122V16.7085H104.191V15.3697Z"
          fill="white"/>
    <path d="M113.988 23.733C113.337 23.733 112.754 23.628 112.239 23.418C111.735 23.1975 111.305 22.8982 110.948 22.5202C110.601 22.1422 110.334 21.6907 110.145 21.1657C109.966 20.6407 109.877 20.0632 109.877 19.4332C109.877 18.8137 109.966 18.2415 110.145 17.7165C110.334 17.1915 110.601 16.74 110.948 16.362C111.305 15.984 111.735 15.69 112.239 15.48C112.754 15.2595 113.337 15.1492 113.988 15.1492C114.639 15.1492 115.216 15.2595 115.72 15.48C116.235 15.69 116.665 15.984 117.012 16.362C117.369 16.74 117.636 17.1915 117.815 17.7165C118.004 18.2415 118.098 18.8137 118.098 19.4332C118.098 20.0632 118.004 20.6407 117.815 21.1657C117.636 21.6907 117.369 22.1422 117.012 22.5202C116.665 22.8982 116.235 23.1975 115.72 23.418C115.216 23.628 114.639 23.733 113.988 23.733ZM113.988 22.3155C114.387 22.3155 114.733 22.2315 115.027 22.0635C115.321 21.8955 115.563 21.675 115.752 21.402C115.941 21.129 116.077 20.8245 116.161 20.4885C116.256 20.142 116.303 19.7902 116.303 19.4332C116.303 19.0867 116.256 18.7402 116.161 18.3937C116.077 18.0472 115.941 17.7427 115.752 17.4802C115.563 17.2072 115.321 16.9867 115.027 16.8187C114.733 16.6507 114.387 16.5667 113.988 16.5667C113.589 16.5667 113.242 16.6507 112.948 16.8187C112.654 16.9867 112.413 17.2072 112.224 17.4802C112.035 17.7427 111.893 18.0472 111.798 18.3937C111.714 18.7402 111.672 19.0867 111.672 19.4332C111.672 19.7902 111.714 20.142 111.798 20.4885C111.893 20.8245 112.035 21.129 112.224 21.402C112.413 21.675 112.654 21.8955 112.948 22.0635C113.242 22.2315 113.589 22.3155 113.988 22.3155Z"
          fill="white"/>
    <path d="M125.088 18.0945C125.014 17.5905 124.81 17.2125 124.474 16.9605C124.148 16.698 123.733 16.5667 123.229 16.5667C122.998 16.5667 122.752 16.6087 122.489 16.6927C122.227 16.7662 121.985 16.9132 121.765 17.1337C121.544 17.3437 121.36 17.643 121.213 18.0315C121.066 18.4095 120.993 18.9082 120.993 19.5277C120.993 19.8637 121.03 20.1997 121.103 20.5357C121.187 20.8717 121.313 21.171 121.481 21.4335C121.66 21.696 121.885 21.9112 122.158 22.0792C122.431 22.2367 122.762 22.3155 123.151 22.3155C123.676 22.3155 124.106 22.1527 124.442 21.8272C124.789 21.5017 125.004 21.045 125.088 20.457H126.883C126.715 21.5175 126.311 22.3312 125.671 22.8982C125.041 23.4547 124.201 23.733 123.151 23.733C122.51 23.733 121.943 23.628 121.45 23.418C120.967 23.1975 120.557 22.9035 120.221 22.536C119.885 22.158 119.628 21.7117 119.449 21.1972C119.281 20.6827 119.197 20.1262 119.197 19.5277C119.197 18.9187 119.281 18.3465 119.449 17.811C119.617 17.2755 119.869 16.8135 120.205 16.425C120.541 16.026 120.956 15.7162 121.45 15.4957C121.954 15.2647 122.542 15.1492 123.214 15.1492C123.686 15.1492 124.132 15.2122 124.552 15.3382C124.983 15.4537 125.361 15.6322 125.686 15.8737C126.022 16.1152 126.295 16.4197 126.505 16.7872C126.715 17.1547 126.841 17.5905 126.883 18.0945H125.088Z"
          fill="white"/>
    <path d="M132.076 23.733C131.425 23.733 130.842 23.628 130.327 23.418C129.823 23.1975 129.393 22.8982 129.036 22.5202C128.689 22.1422 128.422 21.6907 128.233 21.1657C128.054 20.6407 127.965 20.0632 127.965 19.4332C127.965 18.8137 128.054 18.2415 128.233 17.7165C128.422 17.1915 128.689 16.74 129.036 16.362C129.393 15.984 129.823 15.69 130.327 15.48C130.842 15.2595 131.425 15.1492 132.076 15.1492C132.727 15.1492 133.304 15.2595 133.808 15.48C134.323 15.69 134.753 15.984 135.1 16.362C135.457 16.74 135.724 17.1915 135.903 17.7165C136.092 18.2415 136.186 18.8137 136.186 19.4332C136.186 20.0632 136.092 20.6407 135.903 21.1657C135.724 21.6907 135.457 22.1422 135.1 22.5202C134.753 22.8982 134.323 23.1975 133.808 23.418C133.304 23.628 132.727 23.733 132.076 23.733ZM132.076 22.3155C132.475 22.3155 132.821 22.2315 133.115 22.0635C133.409 21.8955 133.651 21.675 133.84 21.402C134.029 21.129 134.165 20.8245 134.249 20.4885C134.344 20.142 134.391 19.7902 134.391 19.4332C134.391 19.0867 134.344 18.7402 134.249 18.3937C134.165 18.0472 134.029 17.7427 133.84 17.4802C133.651 17.2072 133.409 16.9867 133.115 16.8187C132.821 16.6507 132.475 16.5667 132.076 16.5667C131.677 16.5667 131.33 16.6507 131.036 16.8187C130.742 16.9867 130.501 17.2072 130.312 17.4802C130.123 17.7427 129.981 18.0472 129.886 18.3937C129.802 18.7402 129.76 19.0867 129.76 19.4332C129.76 19.7902 129.802 20.142 129.886 20.4885C129.981 20.8245 130.123 21.129 130.312 21.402C130.501 21.675 130.742 21.8955 131.036 22.0635C131.33 22.2315 131.677 22.3155 132.076 22.3155Z"
          fill="white"/>
    <path d="M137.726 12.267H139.522V23.5125H137.726V12.267Z" fill="white"/>
</svg>
