<svg width="24" height="24" viewBox="0 0 24 24" fill="none" xmlns="http://www.w3.org/2000/svg">
    <g clip-path="url(#clip0_4_45)">
        <rect x="-3" y="-3" width="30" height="30" fill="url(#paint0_linear_4_45)"/>
        <path fill-rule="evenodd" clip-rule="evenodd"
              d="M17.148 10.2405C17.3846 8.66151 16.1815 7.81248 14.5376 7.24596L15.071 5.10645L13.7692 4.78251L13.2494 6.86552C12.9074 6.77964 12.5563 6.69979 12.206 6.61993L12.7296 4.52336L11.4278 4.19867L10.8945 6.33742C10.6112 6.27264 10.3325 6.20936 10.0628 6.14156L10.0643 6.13477L8.26829 5.68653L7.92175 7.07721C7.92175 7.07721 8.88829 7.2987 8.86795 7.31226C9.39529 7.44409 9.49022 7.79289 9.4744 8.07013L8.8672 10.5072C8.90336 10.5162 8.95006 10.5298 9.0028 10.5501L8.86494 10.5162L8.01365 13.9304C7.94887 14.0901 7.78539 14.3304 7.41625 14.2393C7.42981 14.2581 6.47004 14.0035 6.47004 14.0035L5.82367 15.4936L7.5187 15.9162C7.8336 15.9954 8.14248 16.0782 8.44607 16.1558L7.90743 18.3194L9.20846 18.6434L9.74183 16.5039C10.0974 16.5995 10.4424 16.6884 10.7799 16.7728L10.2481 18.9033L11.5499 19.2272L12.0885 17.0681C14.3094 17.4885 15.9788 17.319 16.6817 15.3106C17.2482 13.6939 16.6538 12.7605 15.4854 12.1525C16.3366 11.9567 16.977 11.3969 17.148 10.2405ZM14.1723 14.4126C13.7707 16.03 11.0474 15.1554 10.1645 14.9361L10.8801 12.0697C11.7631 12.2904 14.5934 12.7266 14.1723 14.4126ZM14.5753 10.2172C14.2084 11.6885 11.9424 10.9404 11.2078 10.7573L11.8557 8.15827C12.5902 8.34133 14.958 8.6826 14.5753 10.2172Z"
              fill="white"/>
    </g>
    <defs>
        <linearGradient id="paint0_linear_4_45" x1="11.9919" y1="-3.0072" x2="11.9919" y2="26.997"
                        gradientUnits="userSpaceOnUse">
            <stop stop-color="#F9AA4B"/>
            <stop offset="1" stop-color="#F7931A"/>
        </linearGradient>
        <clipPath id="clip0_4_45">
            <rect width="24" height="24" fill="white"/>
        </clipPath>
    </defs>
</svg>
