<svg width="42" height="42" viewBox="0 0 42 42" fill="none" xmlns="http://www.w3.org/2000/svg">
<path d="M20.2797 17.6667C20.8387 17.6667 21.1494 17.02 20.8002 16.5835L16.854 11.6507C16.5871 11.3171 16.0797 11.3171 15.8128 11.6507L11.8666 16.5835C11.5174 17.02 11.8282 17.6667 12.3872 17.6667L13.7301 17.6667C14.0726 17.6667 14.3594 17.9262 14.3934 18.267L14.88 23.1327C14.9482 23.8143 15.5217 24.3333 16.2067 24.3333H16.4601C17.1451 24.3333 17.7186 23.8143 17.7868 23.1327L18.2734 18.267C18.3075 17.9262 18.5942 17.6667 18.9367 17.6667L20.2797 17.6667Z" fill="#363870"/>
<path d="M21.7204 24.3334C21.1614 24.3334 20.8506 24.98 21.1998 25.4165L25.1461 30.3493C25.413 30.6829 25.9204 30.6829 26.1872 30.3493L30.1335 25.4165C30.4827 24.98 30.1719 24.3334 29.6129 24.3334H28.27C27.9275 24.3334 27.6407 24.0738 27.6066 23.733L27.1201 18.8673C27.0519 18.1857 26.4783 17.6667 25.7933 17.6667L25.54 17.6667C24.855 17.6667 24.2814 18.1857 24.2133 18.8673L23.7267 23.733C23.6926 24.0738 23.4058 24.3334 23.0633 24.3334H21.7204Z" fill="#363870"/>
<rect x="1" y="1" width="40" height="40" rx="20" stroke="#F1F2FE" stroke-width="2"/>
</svg>
