<svg width="79" height="20" viewBox="0 0 79 20" fill="none" xmlns="http://www.w3.org/2000/svg">
<rect width="79" height="20" rx="4" fill="#EDAA8A"/>
<path d="M11.2656 11.293C11.1602 12.1953 10.8262 12.8926 10.2637 13.3848C9.70508 13.873 8.96094 14.1172 8.03125 14.1172C7.02344 14.1172 6.21484 13.7559 5.60547 13.0332C5 12.3105 4.69727 11.3438 4.69727 10.1328V9.3125C4.69727 8.51953 4.83789 7.82227 5.11914 7.2207C5.4043 6.61914 5.80664 6.1582 6.32617 5.83789C6.8457 5.51367 7.44727 5.35156 8.13086 5.35156C9.03711 5.35156 9.76367 5.60547 10.3105 6.11328C10.8574 6.61719 11.1758 7.31641 11.2656 8.21094H10.1348C10.0371 7.53125 9.82422 7.03906 9.49609 6.73438C9.17188 6.42969 8.7168 6.27734 8.13086 6.27734C7.41211 6.27734 6.84766 6.54297 6.4375 7.07422C6.03125 7.60547 5.82812 8.36133 5.82812 9.3418V10.168C5.82812 11.0938 6.02148 11.8301 6.4082 12.377C6.79492 12.9238 7.33594 13.1973 8.03125 13.1973C8.65625 13.1973 9.13477 13.0566 9.4668 12.7754C9.80273 12.4902 10.0254 11.9961 10.1348 11.293H11.2656ZM12.3496 10.7715C12.3496 10.1504 12.4707 9.5918 12.7129 9.0957C12.959 8.59961 13.2988 8.2168 13.7324 7.94727C14.1699 7.67773 14.668 7.54297 15.2266 7.54297C16.0898 7.54297 16.7871 7.8418 17.3184 8.43945C17.8535 9.03711 18.1211 9.83203 18.1211 10.8242V10.9004C18.1211 11.5176 18.002 12.0723 17.7637 12.5645C17.5293 13.0527 17.1914 13.4336 16.75 13.707C16.3125 13.9805 15.8086 14.1172 15.2383 14.1172C14.3789 14.1172 13.6816 13.8184 13.1465 13.2207C12.6152 12.623 12.3496 11.832 12.3496 10.8477V10.7715ZM13.4395 10.9004C13.4395 11.6035 13.6016 12.168 13.9258 12.5938C14.2539 13.0195 14.6914 13.2324 15.2383 13.2324C15.7891 13.2324 16.2266 13.0176 16.5508 12.5879C16.875 12.1543 17.0371 11.5488 17.0371 10.7715C17.0371 10.0762 16.8711 9.51367 16.5391 9.08398C16.2109 8.65039 15.7734 8.43359 15.2266 8.43359C14.6914 8.43359 14.2598 8.64648 13.9316 9.07227C13.6035 9.49805 13.4395 10.1074 13.4395 10.9004ZM20.5 7.66016L20.5293 8.36328C20.9941 7.81641 21.6211 7.54297 22.4102 7.54297C23.2969 7.54297 23.9004 7.88281 24.2207 8.5625C24.4316 8.25781 24.7051 8.01172 25.041 7.82422C25.3809 7.63672 25.7812 7.54297 26.2422 7.54297C27.6328 7.54297 28.3398 8.2793 28.3633 9.75195V14H27.2793V9.81641C27.2793 9.36328 27.1758 9.02539 26.9688 8.80273C26.7617 8.57617 26.4141 8.46289 25.9258 8.46289C25.5234 8.46289 25.1895 8.58398 24.9238 8.82617C24.6582 9.06445 24.5039 9.38672 24.4609 9.79297V14H23.3711V9.8457C23.3711 8.92383 22.9199 8.46289 22.0176 8.46289C21.3066 8.46289 20.8203 8.76562 20.5586 9.37109V14H19.4746V7.66016H20.5ZM31.1816 14H30.0977V7.66016H31.1816V14ZM30.0098 5.97852C30.0098 5.80273 30.0625 5.6543 30.168 5.5332C30.2773 5.41211 30.4375 5.35156 30.6484 5.35156C30.8594 5.35156 31.0195 5.41211 31.1289 5.5332C31.2383 5.6543 31.293 5.80273 31.293 5.97852C31.293 6.1543 31.2383 6.30078 31.1289 6.41797C31.0195 6.53516 30.8594 6.59375 30.6484 6.59375C30.4375 6.59375 30.2773 6.53516 30.168 6.41797C30.0625 6.30078 30.0098 6.1543 30.0098 5.97852ZM33.9473 7.66016L33.9824 8.45703C34.4668 7.84766 35.0996 7.54297 35.8809 7.54297C37.2207 7.54297 37.8965 8.29883 37.9082 9.81055V14H36.8242V9.80469C36.8203 9.34766 36.7148 9.00977 36.5078 8.79102C36.3047 8.57227 35.9863 8.46289 35.5527 8.46289C35.2012 8.46289 34.8926 8.55664 34.627 8.74414C34.3613 8.93164 34.1543 9.17773 34.0059 9.48242V14H32.9219V7.66016H33.9473ZM39.2852 10.7773C39.2852 9.78906 39.5137 9.00391 39.9707 8.42188C40.4277 7.83594 41.0332 7.54297 41.7871 7.54297C42.5605 7.54297 43.1641 7.81641 43.5977 8.36328L43.6504 7.66016H44.6406V13.8477C44.6406 14.668 44.3965 15.3145 43.9082 15.7871C43.4238 16.2598 42.7715 16.4961 41.9512 16.4961C41.4941 16.4961 41.0469 16.3984 40.6094 16.2031C40.1719 16.0078 39.8379 15.7402 39.6074 15.4004L40.1699 14.75C40.6348 15.3242 41.2031 15.6113 41.875 15.6113C42.4023 15.6113 42.8125 15.4629 43.1055 15.166C43.4023 14.8691 43.5508 14.4512 43.5508 13.9121V13.3672C43.1172 13.8672 42.5254 14.1172 41.7754 14.1172C41.0332 14.1172 40.4316 13.8184 39.9707 13.2207C39.5137 12.623 39.2852 11.8086 39.2852 10.7773ZM40.375 10.9004C40.375 11.6152 40.5215 12.1777 40.8145 12.5879C41.1074 12.9941 41.5176 13.1973 42.0449 13.1973C42.7285 13.1973 43.2305 12.8867 43.5508 12.2656V9.37109C43.2188 8.76562 42.7207 8.46289 42.0566 8.46289C41.5293 8.46289 41.1172 8.66797 40.8203 9.07812C40.5234 9.48828 40.375 10.0957 40.375 10.9004ZM52.9492 12.3184C52.9492 12.0254 52.8379 11.7988 52.6152 11.6387C52.3965 11.4746 52.0117 11.334 51.4609 11.2168C50.9141 11.0996 50.4785 10.959 50.1543 10.7949C49.834 10.6309 49.5957 10.4355 49.4395 10.209C49.2871 9.98242 49.2109 9.71289 49.2109 9.40039C49.2109 8.88086 49.4297 8.44141 49.8672 8.08203C50.3086 7.72266 50.8711 7.54297 51.5547 7.54297C52.2734 7.54297 52.8555 7.72852 53.3008 8.09961C53.75 8.4707 53.9746 8.94531 53.9746 9.52344H52.8848C52.8848 9.22656 52.7578 8.9707 52.5039 8.75586C52.2539 8.54102 51.9375 8.43359 51.5547 8.43359C51.1602 8.43359 50.8516 8.51953 50.6289 8.69141C50.4062 8.86328 50.2949 9.08789 50.2949 9.36523C50.2949 9.62695 50.3984 9.82422 50.6055 9.95703C50.8125 10.0898 51.1855 10.2168 51.7246 10.3379C52.2676 10.459 52.707 10.6035 53.043 10.7715C53.3789 10.9395 53.627 11.1426 53.7871 11.3809C53.9512 11.6152 54.0332 11.9023 54.0332 12.2422C54.0332 12.8086 53.8066 13.2637 53.3535 13.6074C52.9004 13.9473 52.3125 14.1172 51.5898 14.1172C51.082 14.1172 50.6328 14.0273 50.2422 13.8477C49.8516 13.668 49.5449 13.418 49.3223 13.0977C49.1035 12.7734 48.9941 12.4238 48.9941 12.0488H50.0781C50.0977 12.4121 50.2422 12.7012 50.5117 12.916C50.7852 13.127 51.1445 13.2324 51.5898 13.2324C52 13.2324 52.3281 13.1504 52.5742 12.9863C52.8242 12.8184 52.9492 12.5957 52.9492 12.3184ZM55.1582 10.7715C55.1582 10.1504 55.2793 9.5918 55.5215 9.0957C55.7676 8.59961 56.1074 8.2168 56.541 7.94727C56.9785 7.67773 57.4766 7.54297 58.0352 7.54297C58.8984 7.54297 59.5957 7.8418 60.127 8.43945C60.6621 9.03711 60.9297 9.83203 60.9297 10.8242V10.9004C60.9297 11.5176 60.8105 12.0723 60.5723 12.5645C60.3379 13.0527 60 13.4336 59.5586 13.707C59.1211 13.9805 58.6172 14.1172 58.0469 14.1172C57.1875 14.1172 56.4902 13.8184 55.9551 13.2207C55.4238 12.623 55.1582 11.832 55.1582 10.8477V10.7715ZM56.248 10.9004C56.248 11.6035 56.4102 12.168 56.7344 12.5938C57.0625 13.0195 57.5 13.2324 58.0469 13.2324C58.5977 13.2324 59.0352 13.0176 59.3594 12.5879C59.6836 12.1543 59.8457 11.5488 59.8457 10.7715C59.8457 10.0762 59.6797 9.51367 59.3477 9.08398C59.0195 8.65039 58.582 8.43359 58.0352 8.43359C57.5 8.43359 57.0684 8.64648 56.7402 9.07227C56.4121 9.49805 56.248 10.1074 56.248 10.9004ZM62.002 10.7715C62.002 10.1504 62.123 9.5918 62.3652 9.0957C62.6113 8.59961 62.9512 8.2168 63.3848 7.94727C63.8223 7.67773 64.3203 7.54297 64.8789 7.54297C65.7422 7.54297 66.4395 7.8418 66.9707 8.43945C67.5059 9.03711 67.7734 9.83203 67.7734 10.8242V10.9004C67.7734 11.5176 67.6543 12.0723 67.416 12.5645C67.1816 13.0527 66.8438 13.4336 66.4023 13.707C65.9648 13.9805 65.4609 14.1172 64.8906 14.1172C64.0312 14.1172 63.334 13.8184 62.7988 13.2207C62.2676 12.623 62.002 11.832 62.002 10.8477V10.7715ZM63.0918 10.9004C63.0918 11.6035 63.2539 12.168 63.5781 12.5938C63.9062 13.0195 64.3438 13.2324 64.8906 13.2324C65.4414 13.2324 65.8789 13.0176 66.2031 12.5879C66.5273 12.1543 66.6895 11.5488 66.6895 10.7715C66.6895 10.0762 66.5234 9.51367 66.1914 9.08398C65.8633 8.65039 65.4258 8.43359 64.8789 8.43359C64.3438 8.43359 63.9121 8.64648 63.584 9.07227C63.2559 9.49805 63.0918 10.1074 63.0918 10.9004ZM70.1582 7.66016L70.1934 8.45703C70.6777 7.84766 71.3105 7.54297 72.0918 7.54297C73.4316 7.54297 74.1074 8.29883 74.1191 9.81055V14H73.0352V9.80469C73.0312 9.34766 72.9258 9.00977 72.7188 8.79102C72.5156 8.57227 72.1973 8.46289 71.7637 8.46289C71.4121 8.46289 71.1035 8.55664 70.8379 8.74414C70.5723 8.93164 70.3652 9.17773 70.2168 9.48242V14H69.1328V7.66016H70.1582Z" fill="white"/>
</svg>
