<svg width="233" height="285" viewBox="0 0 233 285" fill="none" xmlns="http://www.w3.org/2000/svg">
<path d="M217.143 120V75H201.633V45H186.122V30H170.612V15H139.592V0H93.0612V15H62.0408V30H46.5306V45H31.0204V75H15.5102V120H0V210H15.5102V240H31.0204V255H46.5306V270H77.551V285H155.102V270H186.122V255H201.633V240H217.143V210H232.653V120H217.143Z" fill="#0055FF"/>
<path d="M177.251 104.761V71.4621H165.535V49.2627H153.819V38.1631H142.102V27.0634H118.67V6.59066C109.297 6.59066 106.953 6.59066 97.5804 6.59066V18.307H80.0059V27.0634H67.118V38.1631H50.7151V49.2627H36.6555V71.4621V80.4035H24.9392V104.761V126.097H13.2229V171.359H24.9392V193.558H36.6555V204.658H48.3719V215.758H71.8045V226.857H130.386V215.758H153.819V204.658H165.535V193.558H177.251V171.359H188.968V104.761H177.251Z" fill="#6B9DFF"/>
<path d="M82.193 94.4631V87.4333H86.8795V78.0602H90.7069V66.5906H87.2701L86.8795 60.4857H83.8333V56.9708H79.8497V53.4559H69.305V56.9708H63.2126V63.384H56.339V66.5906H50.7152V73.0037H48.3719V82.6234H46.0286V101.863H49.4654V108.276H52.9022V111.483H56.339V114.689H59.932V117.896H66.6493V114.689H69.305V111.483H72.8199V108.523L76.4911 108.276V101.863H79.8497V94.4631H82.193Z" fill="white"/>
</svg>
