<svg width="103" height="16" viewBox="0 0 103 16" fill="none" xmlns="http://www.w3.org/2000/svg">
<path d="M15.555 8.08394C15.555 12.3793 12.1069 15.8615 7.8532 15.8615C3.59953 15.8615 0.151611 12.3803 0.151611 8.08394C0.151611 3.78754 3.59979 0.30662 7.8532 0.30662C12.1066 0.30662 15.555 3.78859 15.555 8.08394ZM24.0041 8.08394C24.0041 12.1275 22.2798 15.4051 20.1531 15.4051C18.0264 15.4051 16.3022 12.1264 16.3022 8.08394C16.3022 4.04144 18.0264 0.762752 20.1531 0.762752C22.2798 0.762752 24.0041 4.04144 24.0041 8.08394ZM27.4598 8.08394C27.4598 11.7068 26.8533 14.6434 26.1054 14.6434C25.3574 14.6434 24.751 11.7057 24.751 8.08394C24.751 4.46217 25.3574 1.52446 26.1057 1.52446C26.8539 1.52446 27.4598 4.46138 27.4598 8.08394ZM48.7156 0.980982L48.737 0.97626V0.809703H44.3571L40.2901 10.3966L36.2232 0.809703H31.5032V0.97626L31.5244 0.980982C32.3239 1.16197 32.7298 1.43187 32.7298 2.40525V13.8007C32.7298 14.774 32.3223 15.0439 31.5228 15.2249L31.5017 15.2297V15.3967H34.704V15.2302L34.6828 15.2255C33.8833 15.0445 33.4775 14.7746 33.4775 13.8012V3.06623L38.7019 15.3967H38.9982L44.3748 2.72236V14.0826C44.3063 14.8514 43.9041 15.0888 43.1802 15.2527L43.1588 15.2577V15.423H48.737V15.2577L48.7156 15.2527C47.9909 15.0888 47.579 14.8514 47.5105 14.0826L47.5068 2.40525H47.5105C47.5105 1.43187 47.9164 1.16197 48.7156 0.980982ZM51.2636 8.52984C51.3549 6.48237 52.0879 5.00459 53.3181 4.97915C53.6976 4.98545 54.0159 5.1103 54.2633 5.35056C54.7889 5.8623 55.0361 6.93168 54.9979 8.52984H51.2636ZM51.2084 9.10689H57.7465V9.07935C57.7279 7.51371 57.2758 6.29587 56.4038 5.45968C55.6501 4.73705 54.5342 4.33941 53.3621 4.33941H53.3359C52.7276 4.33941 51.9815 4.48735 51.4506 4.75541C50.8462 5.03607 50.3132 5.45574 49.8697 6.00656C49.1557 6.89391 48.7232 8.09312 48.6181 9.44079C48.6147 9.48119 48.6118 9.52158 48.6089 9.56198C48.606 9.60237 48.6042 9.63857 48.6024 9.67712C48.5931 9.86661 48.5899 10.0564 48.5929 10.246C48.6638 13.2984 50.3078 15.7377 53.2277 15.7377C55.7906 15.7377 57.2831 13.8586 57.6552 11.3364L57.4672 11.27C56.8134 12.6256 55.6392 13.4471 54.3028 13.3469C52.4784 13.21 51.0808 11.3548 51.2077 9.10742L51.2084 9.10689ZM65.1387 13.2433C64.9243 13.7535 64.4768 14.0341 63.8771 14.0341C63.2775 14.0341 62.7293 13.6213 62.3399 12.8711C61.9215 12.0658 61.7013 10.9275 61.7013 9.57903C61.7013 6.77246 62.5716 4.95712 63.9187 4.95712C64.4828 4.95712 64.9269 5.23777 65.1387 5.72748V13.2433ZM69.4758 15.2441C68.6763 15.0544 68.2704 14.7719 68.2704 13.749V0.138489L63.4132 1.57377V1.74951L63.443 1.74715C64.113 1.69285 64.5675 1.7857 64.8314 2.03016C65.038 2.22164 65.1387 2.51541 65.1387 2.92879V4.79476C64.6599 4.48813 64.0903 4.33889 63.3991 4.33889C61.9973 4.33889 60.7161 4.93089 59.7921 6.00604C58.8289 7.12656 58.3198 8.65784 58.3198 10.4338C58.3195 13.6058 59.8763 15.7377 62.1934 15.7377C63.5489 15.7377 64.6395 14.9928 65.1387 13.7364V15.423H69.497V15.2483L69.4758 15.2441ZM73.6416 1.98951C73.6416 0.99908 72.897 0.252063 71.9093 0.252063C70.9262 0.252063 70.1571 1.01534 70.1571 1.98951C70.1571 2.96367 70.927 3.72695 71.9093 3.72695C72.897 3.72695 73.6416 2.97993 73.6416 1.98951ZM74.7881 15.2441C73.9886 15.0544 73.5827 14.7719 73.5827 13.749H73.5794V4.37115L69.2208 5.62623V5.79673L69.247 5.79909C70.19 5.88328 70.4481 6.20905 70.4481 7.31437V15.423H74.8103V15.2483L74.7881 15.2441ZM85.9564 15.2441C85.157 15.0544 84.7511 14.7719 84.7511 13.749V4.37115L80.6012 5.58479V5.75581L80.6258 5.75843C81.3968 5.83974 81.6196 6.18414 81.6196 7.29443V13.2223C81.3625 13.7325 80.8803 14.0354 80.296 14.0559C79.3485 14.0559 78.8268 13.414 78.8268 12.2487V4.37141L74.4683 5.6265V5.79673L74.4944 5.79909C75.4375 5.88302 75.6959 6.20879 75.6959 7.31437V12.3313C75.6936 12.6815 75.724 13.0312 75.7866 13.3758L75.8651 13.718C76.2341 15.0442 77.2009 15.7377 78.7157 15.7377C79.9987 15.7377 81.1232 14.9411 81.6186 13.6947V15.4258H85.9771V15.2512L85.9564 15.2441ZM102.888 15.423V15.248L102.867 15.243C102 15.0424 101.662 14.6641 101.662 13.894V7.51502C101.662 5.52604 100.548 4.33889 98.6821 4.33889C97.3222 4.33889 96.1754 5.12708 95.734 6.35489C95.3833 5.0539 94.3741 4.33889 92.8818 4.33889C91.5711 4.33889 90.5438 5.03266 90.1031 6.20459V4.37194L85.7446 5.57561V5.74715L85.7708 5.74951C86.7026 5.8324 86.9719 6.16761 86.9719 7.2446V15.423H91.0386V15.2483L91.0172 15.243C90.3252 15.0799 90.1018 14.7824 90.1018 14.0192V6.70741C90.2849 6.27856 90.6539 5.7705 91.3833 5.7705C92.2892 5.7705 92.7485 6.4 92.7485 7.64014V15.423H96.8162V15.2483L96.7947 15.243C96.1027 15.0799 95.8794 14.7824 95.8794 14.0192V7.51424C95.8812 7.27101 95.8619 7.02809 95.8219 6.7882C96.0159 6.3221 96.4061 5.7705 97.1653 5.7705C98.084 5.7705 98.5305 6.38191 98.5305 7.64014V15.423H102.888Z" fill="#7075E9"/>
</svg>
