<svg width="155" height="35" viewBox="0 0 155 35" fill="none" xmlns="http://www.w3.org/2000/svg">
<path d="M23.683 3.11156C23.0433 3.75121 21.9458 3.94578 21.3061 3.30613L18.5272 0.527208C17.8243 -0.175736 16.6846 -0.175736 15.9816 0.527207L13.2027 3.30613C12.563 3.94578 11.4655 3.75121 10.8258 3.11156C8.69559 0.981309 5.2418 0.981319 3.11156 3.11156C0.981319 5.2418 0.981309 8.69559 3.11156 10.8258C3.75121 11.4655 3.94579 12.563 3.30613 13.2027L0.527208 15.9816C-0.175736 16.6846 -0.175736 17.8243 0.527208 18.5272L3.30613 21.3061C3.94578 21.9458 5.04333 21.7512 5.68299 21.1116C7.81323 18.9813 11.267 18.9813 13.3973 21.1116C15.5275 23.2418 15.5275 26.6956 13.3973 28.8258C12.7576 29.4655 12.563 30.563 13.2027 31.2027L15.9816 33.9816C16.6846 34.6846 17.8243 34.6846 18.5272 33.9816L21.3061 31.2027C21.9458 30.563 23.0433 30.7576 23.683 31.3973C25.8132 33.5275 29.267 33.5275 31.3973 31.3973C33.5275 29.267 33.5275 25.8132 31.3973 23.683C30.7576 23.0433 30.563 21.9458 31.2027 21.3061L33.9816 18.5272C34.6846 17.8243 34.6846 16.6846 33.9816 15.9816L31.2027 13.2027C30.563 12.563 30.7576 11.4655 31.3973 10.8258C33.5275 8.6956 33.5275 5.24181 31.3973 3.11156C29.267 0.981309 25.8132 0.981319 23.683 3.11156Z" fill="#7075E9"/>
<path d="M56.4164 14.3984C56.4164 15.0704 56.2544 15.7004 55.9304 16.2884C55.6184 16.8764 55.1204 17.3504 54.4364 17.7104C53.7644 18.0704 52.9124 18.2504 51.8804 18.2504H49.7744V23.0744H47.2544V10.5104H51.8804C52.8524 10.5104 53.6804 10.6784 54.3644 11.0144C55.0484 11.3504 55.5584 11.8124 55.8944 12.4004C56.2424 12.9884 56.4164 13.6544 56.4164 14.3984ZM51.7724 16.2164C52.4684 16.2164 52.9844 16.0604 53.3204 15.7484C53.6564 15.4244 53.8244 14.9744 53.8244 14.3984C53.8244 13.1744 53.1404 12.5624 51.7724 12.5624H49.7744V16.2164H51.7724Z" fill="#363870"/>
<path d="M67.4396 13.1024V23.0744H64.9016V21.8144C64.5776 22.2464 64.1516 22.5884 63.6236 22.8404C63.1076 23.0804 62.5436 23.2004 61.9316 23.2004C61.1516 23.2004 60.4616 23.0384 59.8616 22.7144C59.2616 22.3784 58.7876 21.8924 58.4396 21.2564C58.1036 20.6084 57.9356 19.8404 57.9356 18.9524V13.1024H60.4556V18.5924C60.4556 19.3844 60.6536 19.9964 61.0496 20.4284C61.4456 20.8484 61.9856 21.0584 62.6696 21.0584C63.3656 21.0584 63.9116 20.8484 64.3076 20.4284C64.7036 19.9964 64.9016 19.3844 64.9016 18.5924V13.1024H67.4396Z" fill="#363870"/>
<path d="M72.05 21.0044H76.496V23.0744H69.188V21.0404L73.544 15.1724H69.206V13.1024H76.442V15.1364L72.05 21.0044Z" fill="#363870"/>
<path d="M80.5711 21.0044H85.0171V23.0744H77.7091V21.0404L82.0651 15.1724H77.7271V13.1024H84.9631V15.1364L80.5711 21.0044Z" fill="#363870"/>
<path d="M89.3083 9.75439V23.0744H86.7883V9.75439H89.3083Z" fill="#363870"/>
<path d="M100.888 17.8724C100.888 18.2324 100.864 18.5564 100.816 18.8444H93.5261C93.5861 19.5644 93.8381 20.1284 94.2821 20.5364C94.7261 20.9444 95.2721 21.1484 95.9201 21.1484C96.8561 21.1484 97.5221 20.7464 97.9181 19.9424H100.636C100.348 20.9024 99.7961 21.6944 98.9801 22.3184C98.1641 22.9304 97.1621 23.2364 95.9741 23.2364C95.0141 23.2364 94.1501 23.0264 93.3821 22.6064C92.6261 22.1744 92.0321 21.5684 91.6001 20.7884C91.1801 20.0084 90.9701 19.1084 90.9701 18.0884C90.9701 17.0564 91.1801 16.1504 91.6001 15.3704C92.0201 14.5904 92.6081 13.9904 93.3641 13.5704C94.1201 13.1504 94.9901 12.9404 95.9741 12.9404C96.9221 12.9404 97.7681 13.1444 98.5121 13.5524C99.2681 13.9604 99.8501 14.5424 100.258 15.2984C100.678 16.0424 100.888 16.9004 100.888 17.8724ZM98.2781 17.1524C98.2661 16.5044 98.0321 15.9884 97.5761 15.6044C97.1201 15.2084 96.5621 15.0104 95.9021 15.0104C95.2781 15.0104 94.7501 15.2024 94.3181 15.5864C93.8981 15.9584 93.6401 16.4804 93.5441 17.1524H98.2781Z" fill="#363870"/>
<path d="M110.995 23.2004C110.119 23.2004 109.327 23.0504 108.619 22.7504C107.923 22.4504 107.371 22.0184 106.963 21.4544C106.555 20.8904 106.345 20.2244 106.333 19.4564H109.033C109.069 19.9724 109.249 20.3804 109.573 20.6804C109.909 20.9804 110.365 21.1304 110.941 21.1304C111.529 21.1304 111.991 20.9924 112.327 20.7164C112.663 20.4284 112.831 20.0564 112.831 19.6004C112.831 19.2284 112.717 18.9224 112.489 18.6824C112.261 18.4424 111.973 18.2564 111.625 18.1244C111.289 17.9804 110.821 17.8244 110.221 17.6564C109.405 17.4164 108.739 17.1824 108.223 16.9544C107.719 16.7144 107.281 16.3604 106.909 15.8924C106.549 15.4124 106.369 14.7764 106.369 13.9844C106.369 13.2404 106.555 12.5924 106.927 12.0404C107.299 11.4884 107.821 11.0684 108.493 10.7804C109.165 10.4804 109.933 10.3304 110.797 10.3304C112.093 10.3304 113.143 10.6484 113.947 11.2844C114.763 11.9084 115.213 12.7844 115.297 13.9124H112.525C112.501 13.4804 112.315 13.1264 111.967 12.8504C111.631 12.5624 111.181 12.4184 110.617 12.4184C110.125 12.4184 109.729 12.5444 109.429 12.7964C109.141 13.0484 108.997 13.4144 108.997 13.8944C108.997 14.2304 109.105 14.5124 109.321 14.7404C109.549 14.9564 109.825 15.1364 110.149 15.2804C110.485 15.4124 110.953 15.5684 111.553 15.7484C112.369 15.9884 113.035 16.2284 113.551 16.4684C114.067 16.7084 114.511 17.0684 114.883 17.5484C115.255 18.0284 115.441 18.6584 115.441 19.4384C115.441 20.1104 115.267 20.7344 114.919 21.3104C114.571 21.8864 114.061 22.3484 113.389 22.6964C112.717 23.0324 111.919 23.2004 110.995 23.2004Z" fill="#363870"/>
<path d="M131.269 13.1024L128.353 23.0744H125.635L123.817 16.1084L121.999 23.0744H119.263L116.329 13.1024H118.885L120.649 20.6984L122.557 13.1024H125.221L127.093 20.6804L128.857 13.1024H131.269Z" fill="#363870"/>
<path d="M131.805 18.0524C131.805 17.0444 132.003 16.1504 132.399 15.3704C132.807 14.5904 133.353 13.9904 134.037 13.5704C134.733 13.1504 135.507 12.9404 136.359 12.9404C137.103 12.9404 137.751 13.0904 138.303 13.3904C138.867 13.6904 139.317 14.0684 139.653 14.5244V13.1024H142.191V23.0744H139.653V21.6164C139.329 22.0844 138.879 22.4744 138.303 22.7864C137.739 23.0864 137.085 23.2364 136.341 23.2364C135.501 23.2364 134.733 23.0204 134.037 22.5884C133.353 22.1564 132.807 21.5504 132.399 20.7704C132.003 19.9784 131.805 19.0724 131.805 18.0524ZM139.653 18.0884C139.653 17.4764 139.533 16.9544 139.293 16.5224C139.053 16.0784 138.729 15.7424 138.321 15.5144C137.913 15.2744 137.475 15.1544 137.007 15.1544C136.539 15.1544 136.107 15.2684 135.711 15.4964C135.315 15.7244 134.991 16.0604 134.739 16.5044C134.499 16.9364 134.379 17.4524 134.379 18.0524C134.379 18.6524 134.499 19.1804 134.739 19.6364C134.991 20.0804 135.315 20.4224 135.711 20.6624C136.119 20.9024 136.551 21.0224 137.007 21.0224C137.475 21.0224 137.913 20.9084 138.321 20.6804C138.729 20.4404 139.053 20.1044 139.293 19.6724C139.533 19.2284 139.653 18.7004 139.653 18.0884Z" fill="#363870"/>
<path d="M146.992 14.5424C147.316 14.0864 147.76 13.7084 148.324 13.4084C148.9 13.0964 149.554 12.9404 150.286 12.9404C151.138 12.9404 151.906 13.1504 152.59 13.5704C153.286 13.9904 153.832 14.5904 154.228 15.3704C154.636 16.1384 154.84 17.0324 154.84 18.0524C154.84 19.0724 154.636 19.9784 154.228 20.7704C153.832 21.5504 153.286 22.1564 152.59 22.5884C151.906 23.0204 151.138 23.2364 150.286 23.2364C149.554 23.2364 148.906 23.0864 148.342 22.7864C147.79 22.4864 147.34 22.1084 146.992 21.6524V27.8264H144.472V13.1024H146.992V14.5424ZM152.266 18.0524C152.266 17.4524 152.14 16.9364 151.888 16.5044C151.648 16.0604 151.324 15.7244 150.916 15.4964C150.52 15.2684 150.088 15.1544 149.62 15.1544C149.164 15.1544 148.732 15.2744 148.324 15.5144C147.928 15.7424 147.604 16.0784 147.352 16.5224C147.112 16.9664 146.992 17.4884 146.992 18.0884C146.992 18.6884 147.112 19.2104 147.352 19.6544C147.604 20.0984 147.928 20.4404 148.324 20.6804C148.732 20.9084 149.164 21.0224 149.62 21.0224C150.088 21.0224 150.52 20.9024 150.916 20.6624C151.324 20.4224 151.648 20.0804 151.888 19.6364C152.14 19.1924 152.266 18.6644 152.266 18.0524Z" fill="#363870"/>
</svg>
