<svg width="10" height="10" viewBox="0 0 10 10" fill="none" xmlns="http://www.w3.org/2000/svg">
<path d="M6.86288 0.90167C6.67752 1.08703 6.35947 1.14341 6.17411 0.958053L5.36883 0.152775C5.16513 -0.0509248 4.83487 -0.050925 4.63117 0.152775L3.82589 0.958054C3.64053 1.14341 3.32248 1.08703 3.13712 0.90167C2.51982 0.284365 1.51897 0.284368 0.90167 0.90167C0.284368 1.51897 0.284365 2.51982 0.90167 3.13712C1.08703 3.32248 1.14341 3.64053 0.958055 3.82589L0.152775 4.63117C-0.0509249 4.83487 -0.0509249 5.16513 0.152775 5.36883L0.958053 6.17411C1.14341 6.35947 1.46146 6.30309 1.64682 6.11773C2.26412 5.50042 3.26497 5.50042 3.88227 6.11773C4.49958 6.73503 4.49958 7.73588 3.88227 8.35318C3.69691 8.53854 3.64053 8.85659 3.82589 9.04195L4.63117 9.84723C4.83487 10.0509 5.16513 10.0509 5.36883 9.84723L6.17411 9.04194C6.35947 8.85659 6.67752 8.91297 6.86288 9.09833C7.48018 9.71564 8.48103 9.71563 9.09833 9.09833C9.71563 8.48103 9.71564 7.48018 9.09833 6.86288C8.91297 6.67752 8.85659 6.35947 9.04195 6.17411L9.84723 5.36883C10.0509 5.16513 10.0509 4.83487 9.84723 4.63117L9.04195 3.82589C8.85659 3.64053 8.91297 3.32248 9.09833 3.13712C9.71563 2.51982 9.71564 1.51898 9.09833 0.90167C8.48102 0.284365 7.48018 0.284368 6.86288 0.90167Z" fill="white"/>
</svg>
