<svg width="56" height="56" viewBox="0 0 56 56" fill="none" xmlns="http://www.w3.org/2000/svg">
<rect width="56" height="56" fill="white"/>
<path d="M28 8L48 28L28 48L8 28L28 8Z" fill="white"/>
<mask id="mask0" style="mask-type:alpha" maskUnits="userSpaceOnUse" x="8" y="8" width="40" height="40">
<path d="M48 8H8V48H48V8Z" fill="#2E3035"/>
</mask>
<g mask="url(#mask0)">
<path fill-rule="evenodd" clip-rule="evenodd" d="M48 28L28 8L8 28L28 48L48 28ZM28.7161 40.8216H26.9973V38.3295C23.5885 38.0287 20.7669 36.0091 20.6667 32.6719H23.1588C23.4151 34.4512 24.506 35.8063 26.952 36.0899C27.7451 36.2323 28.4467 36.1984 29.0263 36.0803C31.4605 35.8047 32.4115 34.54 32.4115 32.9584C32.4115 31.3828 31.638 30.3803 28.8021 29.6927L28.7161 29.6784V29.6791C28.2028 29.5068 27.5549 29.3585 26.7591 29.2008L26.668 29.1771C23.1016 28.3177 21.1823 26.7279 21.1823 23.9063C21.1823 20.8268 23.6028 18.793 26.9973 18.4922V16H28.7161V18.4779C32.0248 18.7786 34.6028 20.8698 34.7031 24.0352H32.2109C32.0248 22.1016 30.6497 20.9701 28.7161 20.7266V20.7405C28.1585 20.6464 27.5713 20.6667 26.9973 20.773V20.7409C24.8203 21.0273 23.6745 22.3451 23.6745 23.7344C23.6745 25.0991 24.4868 26.166 26.7961 26.7769C27.3053 26.9511 27.9428 27.1085 28.7161 27.2111V27.2435L29.1601 27.3437C32.8412 28.2317 34.9036 29.75 34.9036 32.7579C34.9036 36.2096 32.0964 38.086 28.7161 38.3437V40.8216Z" fill="#05B595"/>
<mask id="mask1" style="mask-type:alpha" maskUnits="userSpaceOnUse" x="7" y="8" width="42" height="23">
<path fill-rule="evenodd" clip-rule="evenodd" d="M18.0935 24.8832C15.3329 24.8435 12.0459 25.6252 7.8208 28.1507C7.46363 27.7051 8.91516 26.4569 8.66685 26.0003C8.66826 25.3357 11.3328 23.6941 11.3335 23.3336C18.0002 18.667 25.3335 8.66667 28.0002 8C31.9871 11.4384 39.0284 18.8768 46.6668 24.0007C46.6778 24.2589 46.6626 24.2772 46.6668 24.668C46.6655 25.3348 47.3354 25.8061 47.3335 26.6673C46.336 25.5712 48.9027 27.5509 48.8966 27.6612C44.4095 29.9856 40.634 30.7225 37.2298 30.512C33.4343 30.2771 30.2624 28.8609 27.3928 27.5797C27.2834 27.5309 27.1744 27.4823 27.0659 27.4339C24.0392 26.0847 21.314 24.9295 18.0935 24.8832Z" fill="#2E3035"/>
</mask>
<g mask="url(#mask1)">
<path fill-rule="evenodd" clip-rule="evenodd" d="M48 28L28 8L8 28L28 48L48 28ZM28.7165 40.8216H26.9977V38.3295C23.5889 38.0287 20.7673 36.0091 20.667 32.6719H23.1592C23.4169 34.4623 24.5199 35.8229 26.9977 36.0951V36.0737C27.8671 36.2436 28.6069 36.1985 29.1973 36.0589C31.5055 35.7444 32.4117 34.5024 32.4117 32.9584C32.4117 31.3828 31.6384 30.3803 28.8024 29.6927L28.7165 29.6784V29.6791C28.2032 29.5068 27.5553 29.3585 26.7593 29.2008L26.6683 29.1771C23.1019 28.3177 21.1826 26.7279 21.1826 23.9063C21.1826 20.8268 23.6032 18.793 26.9977 18.4922V16H28.7165V18.4779C32.0251 18.7786 34.6032 20.8698 34.7035 24.0352H32.2112C32.0251 22.1016 30.65 20.9701 28.7165 20.7266C28.1636 20.6508 27.572 20.6712 26.9977 20.7653V20.7409C24.8207 21.0273 23.6748 22.3451 23.6748 23.7344C23.6748 25.0513 24.4312 26.0908 26.5592 26.7111C27.0967 26.9199 27.8076 27.1123 28.7165 27.2261V27.2435L29.1605 27.3437C32.8415 28.2317 34.904 29.75 34.904 32.7579C34.904 36.2096 32.0967 38.086 28.7165 38.3437V40.8216Z" fill="#00FEB5"/>
</g>
</g>
</svg>
