<svg width="16" height="12" viewBox="0 0 16 12" fill="none" xmlns="http://www.w3.org/2000/svg">
    <path d="M1.6 0C0.716344 0 0 0.716345 0 1.6V3.2H5C5.44183 3.2 5.8 3.55817 5.8 4C5.8 5.21503 6.78497 6.2 8 6.2C9.21503 6.2 10.2 5.21503 10.2 4C10.2 3.55817 10.5582 3.2 11 3.2H16V1.6C16 0.716345 15.2837 0 14.4 0H1.6Z" fill="#C6C9F4"/>
    <path d="M16 4.8H11.7156C11.3483 6.51453 9.82425 7.8 8 7.8C6.17575 7.8 4.65174 6.51453 4.28436 4.8H0V10.4C0 11.2837 0.716345 12 1.6 12H14.4C15.2837 12 16 11.2837 16 10.4V4.8Z" fill="#C6C9F4"/>
</svg>
