<svg width="25" height="24" viewBox="0 0 25 24" fill="none" xmlns="http://www.w3.org/2000/svg">
    <path d="M16.5 5C16.5 4.44772 16.9477 4 17.5 4H19.5C20.0523 4 20.5 4.44772 20.5 5V19C20.5 19.5523 20.0523 20 19.5 20H17.5C16.9477 20 16.5 19.5523 16.5 19V5Z" fill="#79787D"/>
    <path d="M10.5 9C10.5 8.44772 10.9477 8 11.5 8H13.5C14.0523 8 14.5 8.44772 14.5 9V19C14.5 19.5523 14.0523 20 13.5 20H11.5C10.9477 20 10.5 19.5523 10.5 19V9Z" fill="#79787D"/>
    <path d="M4.5 13C4.5 12.4477 4.94772 12 5.5 12H7.5C8.05228 12 8.5 12.4477 8.5 13V19C8.5 19.5523 8.05228 20 7.5 20H5.5C4.94772 20 4.5 19.5523 4.5 19V13Z" fill="#79787D"/>
</svg>
