<svg width="120" height="120" viewBox="0 0 120 120" fill="none" xmlns="http://www.w3.org/2000/svg">
    <path d="M13.4418 35.0077C12.9472 32.8546 14.2917 30.7083 16.4448 30.2137L55.4295 21.2589C57.5826 20.7643 59.7289 22.1088 60.2235 24.2619L69.1783 63.2467C69.6728 65.3997 68.3284 67.5461 66.1753 68.0406L27.1905 76.9954C25.0374 77.49 22.8911 76.1455 22.3966 73.9924L13.4418 35.0077Z"
          fill="#F1F2FE"/>
    <path d="M27.0827 42.1575C26.5109 38.8935 28.6934 35.784 31.9574 35.2122L71.3574 28.31C74.6214 27.7382 77.7309 29.9207 78.3027 33.1847L85.2049 72.5846C85.7767 75.8487 83.5942 78.9582 80.3302 79.53L40.9303 86.4322C37.6663 87.004 34.5567 84.8215 33.9849 81.5575L27.0827 42.1575Z"
          fill="#DDDEF8"/>
    <path d="M40.7669 49.1429C40.2333 44.757 43.3562 40.7689 47.7422 40.2353L87.4494 35.4046C91.8354 34.871 95.8234 37.9939 96.357 42.3799L101.188 82.0871C101.721 86.473 98.5984 90.4611 94.2124 90.9947L54.5052 95.8254C50.1193 96.359 46.1312 93.2361 45.5976 88.8501L40.7669 49.1429Z"
          fill="#C6C9F4"/>
    <path fill-rule="evenodd" clip-rule="evenodd"
          d="M61.8575 62.233C61.5783 59.9386 63.2119 57.8522 65.5063 57.5729C67.8008 57.2936 69.8872 58.9272 70.1665 61.2216C70.4457 63.5161 68.8121 65.6025 66.5177 65.8818C64.2232 66.1611 62.1368 64.5275 61.8575 62.233ZM65.748 59.5582C64.55 59.704 63.6971 60.7934 63.8429 61.9914C63.9887 63.1893 65.0781 64.0423 66.276 63.8965C67.474 63.7506 68.3269 62.6613 68.1811 61.4633C68.0353 60.2653 66.9459 59.4124 65.748 59.5582Z"
          fill="#F1F2FE"/>
    <path fill-rule="evenodd" clip-rule="evenodd"
          d="M85.5419 71.5522C85.5416 71.5492 85.5412 71.5461 85.5408 71.543L83.6935 56.3665C83.4981 54.7615 82.6732 53.2999 81.4002 52.3031C80.1272 51.3064 78.5103 50.8562 76.9054 51.0515L61.7288 52.8988C60.1238 53.0942 58.6622 53.9191 57.6654 55.1922C56.6687 56.4652 56.2185 58.082 56.4138 59.687L58.2611 74.8636C58.4565 76.4685 59.2814 77.9302 60.5545 78.9269C61.8245 79.9213 63.4367 80.3717 65.0379 80.1799C65.0417 80.1795 65.0455 80.179 65.0493 80.1786L80.3941 78.3108C81.9544 78.1208 83.3754 77.3188 84.3445 76.0812C85.3135 74.8436 85.7512 73.2717 85.5613 71.7113L85.5419 71.5522ZM61.9704 54.8842C60.892 55.0155 59.9099 55.5698 59.2402 56.4251C58.5704 57.2805 58.2679 58.3669 58.3992 59.4453L60.2465 74.6219C60.3778 75.7003 60.9321 76.6824 61.7874 77.3522C62.5312 77.9345 63.4496 78.2392 64.3856 78.2225L73.4518 65.4333C73.737 65.031 74.103 64.6926 74.5263 64.4397C74.9496 64.1867 75.4209 64.0248 75.9103 63.9643C76.3997 63.9037 76.8963 63.9458 77.3685 64.0878C77.8406 64.2299 78.278 64.4688 78.6526 64.7893L83.1748 68.6572L81.7081 56.6081C81.5769 55.5297 81.0226 54.5476 80.1672 53.8779C79.3118 53.2081 78.2254 52.9056 77.147 53.0369L61.9704 54.8842ZM83.5565 71.7931L83.5555 71.7848C83.5451 71.6996 83.5318 71.6567 83.5247 71.638C83.5189 71.6225 83.5131 71.6117 83.5014 71.5959C83.4863 71.5755 83.457 71.5413 83.3931 71.4814C83.3313 71.4235 83.2602 71.3624 83.1567 71.2735L83.1244 71.2459L77.3526 66.3092C77.1892 66.1693 76.9982 66.065 76.7922 66.003C76.5862 65.941 76.3695 65.9227 76.156 65.9491C75.9425 65.9755 75.7368 66.0462 75.5521 66.1565C75.3675 66.2669 75.2078 66.4145 75.0834 66.5899L67.0516 77.92L79.9842 76.3458C81.0626 76.2146 82.0447 75.6603 82.7145 74.8049C83.3825 73.9517 83.6852 72.8688 83.5565 71.7931Z"
          fill="#F1F2FE"/>
</svg>
