<svg width="120" height="120" viewBox="0 0 120 120" fill="none" xmlns="http://www.w3.org/2000/svg">
    <path d="M20 39.2C20 32.4794 20 29.1191 21.3079 26.5521C22.4584 24.2942 24.2942 22.4584 26.5521 21.3079C29.1191 20 32.4794 20 39.2 20H80.8C87.5206 20 90.8809 20 93.4479 21.3079C95.7058 22.4584 97.5416 24.2942 98.6921 26.5521C100 29.1191 100 32.4794 100 39.2V80.8C100 87.5206 100 90.8809 98.6921 93.4479C97.5416 95.7058 95.7058 97.5416 93.4479 98.6921C90.8809 100 87.5206 100 80.8 100H39.2C32.4794 100 29.1191 100 26.5521 98.6921C24.2942 97.5416 22.4584 95.7058 21.3079 93.4479C20 90.8809 20 87.5206 20 80.8V39.2Z" fill="#E7F4EB"/>
    <path d="M41.6446 59.4718C41.0331 58.7492 41.0777 57.6786 41.747 57.0093L43.1367 55.6196C43.8475 54.9088 44.9998 54.9088 45.7106 55.6196L54.4169 64.3258C54.5868 64.4957 54.8595 64.5042 55.0396 64.3453L75.3149 46.4553C76.0356 45.8194 77.1264 45.8535 77.806 46.5331L78.253 46.9801C78.945 47.6721 78.9659 48.7874 78.3004 49.5048L56.116 73.4178C55.3734 74.2184 54.0978 74.1892 53.3924 73.3556L41.6446 59.4718Z" fill="url(#paint0_linear_532_15467)"/>
    <defs>
        <linearGradient id="paint0_linear_532_15467" x1="60" y1="46" x2="60" y2="74" gradientUnits="userSpaceOnUse">
            <stop stop-color="#35A15A"/>
            <stop offset="1" stop-color="#24893A"/>
        </linearGradient>
    </defs>
</svg>
