<svg width="42" height="42" viewBox="0 0 42 42" fill="none" xmlns="http://www.w3.org/2000/svg">
    <path d="M20.2792 17.6667C20.8382 17.6667 21.149 17.02 20.7997 16.5835L16.8535 11.6507C16.5866 11.3171 16.0792 11.3171 15.8123 11.6507L11.8661 16.5835C11.5169 17.02 11.8277 17.6667 12.3867 17.6667L13.7296 17.6667C14.0721 17.6667 14.3589 17.9262 14.393 18.267L14.8795 23.1327C14.9477 23.8143 15.5212 24.3333 16.2062 24.3333H16.4596C17.1446 24.3333 17.7182 23.8143 17.7863 23.1327L18.2729 18.267C18.307 17.9262 18.5937 17.6667 18.9362 17.6667L20.2792 17.6667Z" fill="#363870"/>
    <path d="M21.7197 24.3334C21.1607 24.3334 20.8499 24.98 21.1991 25.4165L25.1453 30.3494C25.4122 30.683 25.9196 30.683 26.1865 30.3494L30.1328 25.4165C30.482 24.98 30.1712 24.3334 29.6122 24.3334H28.2692C27.9267 24.3334 27.64 24.0739 27.6059 23.7331L27.1193 18.8674C27.0512 18.1858 26.4776 17.6667 25.7926 17.6667L25.5392 17.6667C24.8542 17.6667 24.2807 18.1858 24.2125 18.8674L23.726 23.7331C23.6919 24.0739 23.4051 24.3334 23.0626 24.3334H21.7197Z" fill="#363870"/>
    <rect x="1" y="1" width="40" height="40" rx="20" stroke="#F1F2FE" stroke-width="2"/>
</svg>
