<svg width="25" height="24" viewBox="0 0 25 24" fill="none" xmlns="http://www.w3.org/2000/svg">
    <path d="M12.24 5.72032H16.1195C18.1469 5.72032 19.7905 7.36389 19.7905 9.39134V11.3186C19.7905 11.9269 19.2974 12.4199 18.6892 12.4199H17.5879C16.9797 12.4199 16.4866 11.9269 16.4866 11.3186V9.39134C16.4866 9.18859 16.3222 9.02424 16.1195 9.02424H6.31323C5.25856 9.02424 4.8071 7.6847 5.6466 7.0463L10.472 3.37684C11.1971 2.82546 12.24 3.34256 12.24 4.25347V5.72032Z"
          fill="white"/>
    <path d="M12.76 18.2797L8.8805 18.2797C6.85305 18.2797 5.20948 16.6361 5.20948 14.6087L5.20948 12.6814C5.20948 12.0731 5.70255 11.5801 6.31079 11.5801L7.41209 11.5801C8.02032 11.5801 8.5134 12.0731 8.5134 12.6814L8.51339 14.6087C8.51339 14.8114 8.67775 14.9758 8.8805 14.9758L18.6868 14.9758C19.7414 14.9758 20.1929 16.3153 19.3534 16.9537L14.528 20.6232C13.8029 21.1745 12.76 20.6574 12.76 19.7465L12.76 18.2797Z"
          fill="white"/>
</svg>
