<svg width="20" height="32" viewBox="0 0 20 32" fill="none" xmlns="http://www.w3.org/2000/svg">    <path fill-rule="evenodd" clip-rule="evenodd" d="M11.3334 1.33333C11.3334 0.596954 10.7365 0 10.0001 0C9.2637 0 8.66675 0.596954 8.66675 1.33333V5.33333H6.66675C5.07545 5.33333 3.54933 5.96548 2.42411 7.09069C1.29889 8.21591 0.666748 9.74203 0.666748 11.3333C0.666748 12.9246 1.29889 14.4508 2.42411 15.576C3.54933 16.7012 5.07545 17.3333 6.66675 17.3333H8.66675V24H2.00008C1.2637 24 0.666748 24.597 0.666748 25.3333C0.666748 26.0697 1.2637 26.6667 2.00008 26.6667H8.66675V30.6667C8.66675 31.403 9.2637 32 10.0001 32C10.7365 32 11.3334 31.403 11.3334 30.6667V26.6667H13.3334C14.9247 26.6667 16.4508 26.0345 17.5761 24.9093C18.7013 23.7841 19.3334 22.258 19.3334 20.6667C19.3334 19.0754 18.7013 17.5492 17.5761 16.424C16.4508 15.2988 14.9247 14.6667 13.3334 14.6667H11.3334V8H16.6667C17.4031 8 18.0001 7.40305 18.0001 6.66667C18.0001 5.93029 17.4031 5.33333 16.6667 5.33333H11.3334V1.33333ZM8.66675 8H6.66675C5.78269 8 4.93485 8.35119 4.30973 8.97631C3.6846 9.60143 3.33341 10.4493 3.33341 11.3333C3.33341 12.2174 3.6846 13.0652 4.30973 13.6904C4.93485 14.3155 5.78269 14.6667 6.66675 14.6667H8.66675V8ZM11.3334 17.3333V24H13.3334C14.2175 24 15.0653 23.6488 15.6904 23.0237C16.3156 22.3986 16.6667 21.5507 16.6667 20.6667C16.6667 19.7826 16.3156 18.9348 15.6904 18.3096C15.0653 17.6845 14.2175 17.3333 13.3334 17.3333H11.3334Z" fill="url(#paint0_linear_1362_214)"/>    <defs>        <linearGradient id="paint0_linear_1362_214" x1="10.0001" y1="0" x2="10.0001" y2="32" gradientUnits="userSpaceOnUse">            <stop stop-color="#35A15A"/>            <stop offset="1" stop-color="#24893A"/>        </linearGradient>    </defs></svg>