<svg width="80" height="80" viewBox="0 0 80 80" fill="none" xmlns="http://www.w3.org/2000/svg">    <path d="M0 19.2C0 12.4794 0 9.11906 1.30792 6.55211C2.4584 4.29417 4.29417 2.4584 6.55211 1.30792C9.11906 0 12.4794 0 19.2 0H60.8C67.5206 0 70.8809 0 73.4479 1.30792C75.7058 2.4584 77.5416 4.29417 78.6921 6.55211C80 9.11906 80 12.4794 80 19.2V60.8C80 67.5206 80 70.8809 78.6921 73.4479C77.5416 75.7058 75.7058 77.5416 73.4479 78.6921C70.8809 80 67.5206 80 60.8 80H19.2C12.4794 80 9.11906 80 6.55211 78.6921C4.29417 77.5416 2.4584 75.7058 1.30792 73.4479C0 70.8809 0 67.5206 0 60.8V19.2Z" fill="white"/>    <path fill-rule="evenodd" clip-rule="evenodd" d="M41.3334 25.3333C41.3334 24.597 40.7365 24 40.0001 24C39.2637 24 38.6667 24.597 38.6667 25.3333V29.3333H36.6667C35.0754 29.3333 33.5493 29.9655 32.4241 31.0907C31.2989 32.2159 30.6667 33.742 30.6667 35.3333C30.6667 36.9246 31.2989 38.4508 32.4241 39.576C33.5493 40.7012 35.0754 41.3333 36.6667 41.3333H38.6667V48H32.0001C31.2637 48 30.6667 48.597 30.6667 49.3333C30.6667 50.0697 31.2637 50.6667 32.0001 50.6667H38.6667V54.6667C38.6667 55.403 39.2637 56 40.0001 56C40.7365 56 41.3334 55.403 41.3334 54.6667V50.6667H43.3334C44.9247 50.6667 46.4508 50.0345 47.5761 48.9093C48.7013 47.7841 49.3334 46.258 49.3334 44.6667C49.3334 43.0754 48.7013 41.5492 47.5761 40.424C46.4508 39.2988 44.9247 38.6667 43.3334 38.6667H41.3334V32H46.6667C47.4031 32 48.0001 31.403 48.0001 30.6667C48.0001 29.9303 47.4031 29.3333 46.6667 29.3333H41.3334V25.3333ZM38.6667 32H36.6667C35.7827 32 34.9348 32.3512 34.3097 32.9763C33.6846 33.6014 33.3334 34.4493 33.3334 35.3333C33.3334 36.2174 33.6846 37.0652 34.3097 37.6904C34.9348 38.3155 35.7827 38.6667 36.6667 38.6667H38.6667V32ZM41.3334 41.3333V48H43.3334C44.2175 48 45.0653 47.6488 45.6904 47.0237C46.3156 46.3986 46.6667 45.5507 46.6667 44.6667C46.6667 43.7826 46.3156 42.9348 45.6904 42.3096C45.0653 41.6845 44.2175 41.3333 43.3334 41.3333H41.3334Z" fill="url(#paint0_linear_87_4075)"/>    <defs>        <linearGradient id="paint0_linear_87_4075" x1="40.0001" y1="24" x2="40.0001" y2="56" gradientUnits="userSpaceOnUse">            <stop stop-color="#35A15A"/>            <stop offset="1" stop-color="#24893A"/>        </linearGradient>    </defs></svg>