<svg width="80" height="80" viewBox="0 0 80 80" fill="none" xmlns="http://www.w3.org/2000/svg">
	<path d="M0 19.2C0 12.4794 0 9.11905 1.30792 6.55211C2.4584 4.29417 4.29417 2.4584 6.55211 1.30792C9.11905 0 12.4794 0 19.2 0H60.8C67.5206 0 70.8809 0 73.4479 1.30792C75.7058 2.4584 77.5416 4.29417 78.6921 6.55211C80 9.11905 80 12.4794 80 19.2V60.8C80 67.5206 80 70.8809 78.6921 73.4479C77.5416 75.7058 75.7058 77.5416 73.4479 78.6921C70.8809 80 67.5206 80 60.8 80H19.2C12.4794 80 9.11905 80 6.55211 78.6921C4.29417 77.5416 2.4584 75.7058 1.30792 73.4479C0 70.8809 0 67.5206 0 60.8V19.2Z" fill="white"/>
	<path d="M42.6523 24C43.876 23.9995 45.0535 24.4664 45.9443 25.3054C46.835 26.1443 47.3715 27.2919 47.4442 28.5134L47.4522 28.7934L51.0533 28.795C52.4425 28.795 53.5948 29.8033 53.8173 31.1301L53.8461 31.367L53.8557 31.5959L53.8541 37.5993H50.6564C50.0911 37.5983 49.5435 37.7968 49.1102 38.1598C48.6769 38.5228 48.3856 39.0271 48.2876 39.5839L48.2636 39.7951L48.2556 40C48.2546 40.5653 48.4531 41.1128 48.8161 41.5461C49.1792 41.9794 49.6835 42.2707 50.2402 42.3687L50.4515 42.3927L50.6564 42.4007H53.8557V48.4057C53.8557 49.1086 53.5914 49.7858 53.1152 50.3029C52.639 50.82 51.9859 51.1391 51.2853 51.197L51.0565 51.2066L47.4538 51.205L47.4474 51.4818C47.3811 52.6057 46.9219 53.6706 46.1502 54.4903C45.3784 55.31 44.3432 55.8325 43.2253 55.9664L42.9372 55.992L42.6539 56C41.4303 56.0002 40.2527 55.5331 39.3618 54.6943C38.4709 53.8554 37.9339 52.7081 37.8605 51.4866L37.8509 51.205H34.2498C33.5879 51.2052 32.9472 50.9709 32.4416 50.5437C31.9359 50.1166 31.5978 49.5241 31.4874 48.8715L31.4586 48.6346L31.449 48.4057L31.4474 44.7998L31.1865 44.7918C30.0623 44.7259 28.9971 44.2669 28.177 43.4951C27.357 42.7233 26.8343 41.6879 26.7004 40.5698L26.6748 40.2817L26.6667 39.9984C26.6667 38.7737 27.1346 37.5953 27.9748 36.7042C28.815 35.8131 29.9639 35.2768 31.1865 35.205L31.4474 35.197V31.5959C31.4474 30.2083 32.4589 29.0559 33.7841 28.8335L34.0194 28.8046L34.2498 28.795L37.8493 28.7934L37.8589 28.5198C37.9249 27.3956 38.3838 26.3304 39.1556 25.5103C39.9274 24.6903 40.9629 24.1676 42.081 24.0336L42.3691 24.008L42.6523 24ZM42.6523 26.4007C42.0556 26.4007 41.4802 26.6231 41.0384 27.0243C40.5966 27.4255 40.3201 27.9769 40.2628 28.571L40.2516 28.803L40.2484 31.1942L34.2498 31.1958C34.1597 31.1959 34.0722 31.2265 34.0016 31.2826C33.931 31.3386 33.8815 31.4169 33.8609 31.5047L33.8497 31.5959L33.8481 37.5993H31.4682C30.8517 37.5996 30.2589 37.8371 29.8127 38.2625C29.3665 38.688 29.1011 39.2688 29.0714 39.8846C29.0418 40.5005 29.2502 41.1041 29.6535 41.5704C30.0568 42.0367 30.6241 42.33 31.2377 42.3895L31.4682 42.4007H33.8497V48.4057C33.8499 48.4961 33.8808 48.5837 33.9371 48.6543C33.9935 48.7249 34.0721 48.7744 34.1602 48.7946L34.2514 48.8058H40.25L40.2532 51.1986C40.2531 51.8152 40.4903 52.4083 40.9157 52.8548C41.341 53.3013 41.9218 53.567 42.5378 53.5969C43.1537 53.6267 43.7575 53.4184 44.224 53.0151C44.6905 52.6118 44.984 52.0444 45.0435 51.4306L45.0531 51.2018L45.0499 48.8058H51.0549C51.1448 48.8058 51.2321 48.7754 51.3026 48.7197C51.3732 48.6639 51.4229 48.586 51.4438 48.4986L51.455 48.4073L51.4534 44.7998H50.6163L50.3283 44.7902C49.1573 44.7086 48.0567 44.2012 47.2341 43.3639C46.4115 42.5265 45.9238 41.4171 45.8629 40.2449L45.8565 39.96L45.8661 39.6719C45.9459 38.506 46.4482 37.4093 47.2788 36.5873C48.1094 35.7652 49.2112 35.2743 50.3779 35.2066L50.6548 35.1986H51.4518V31.5959C51.452 31.5239 51.4328 31.4532 51.3961 31.3912C51.3595 31.3293 51.3069 31.2783 51.2437 31.2438L51.1445 31.207L51.0533 31.1958L45.0483 31.1942L45.0515 28.8014C45.0515 28.1647 44.7985 27.5541 44.3483 27.1039C43.8981 26.6537 43.2875 26.4007 42.6507 26.4007H42.6523Z" fill="url(#paint0_linear_87_4075)"/>
	<defs>
		<linearGradient id="paint0_linear_87_4075" x1="40.2612" y1="24" x2="40.2612" y2="56" gradientUnits="userSpaceOnUse">
			<stop stop-color="#6563DD"/>
			<stop offset="1" stop-color="#9599FF"/>
		</linearGradient>
	</defs>
</svg>
