<svg width="28" height="32" viewBox="0 0 28 32" fill="none" xmlns="http://www.w3.org/2000/svg">
	<path d="M16.6523 4.43941e-07C17.876 -0.000525586 19.0535 0.46644 19.9443 1.30539C20.835 2.14435 21.3715 3.2919 21.4442 4.51335L21.4522 4.79344L25.0533 4.79504C26.4425 4.79504 27.5948 5.80334 27.8173 7.13014L27.8461 7.36701L27.8557 7.59588L27.8541 13.5993H24.6564C24.0911 13.5983 23.5435 13.7968 23.1102 14.1598C22.6769 14.5228 22.3856 15.0271 22.2876 15.5839L22.2636 15.7951L22.2556 16C22.2546 16.5653 22.4531 17.1128 22.8161 17.5461C23.1792 17.9794 23.6835 18.2707 24.2402 18.3687L24.4515 18.3927L24.6564 18.4007H27.8557V24.4057C27.8557 25.1086 27.5914 25.7858 27.1152 26.3029C26.639 26.82 25.9859 27.1391 25.2853 27.197L25.0565 27.2066L21.4538 27.205L21.4474 27.4818C21.3811 28.6057 20.9219 29.6706 20.1502 30.4903C19.3784 31.31 18.3432 31.8325 17.2253 31.9664L16.9372 31.992L16.6539 32C15.4303 32.0002 14.2527 31.5331 13.3618 30.6943C12.4709 29.8554 11.9339 28.7081 11.8605 27.4866L11.8509 27.205H8.24983C7.58788 27.2052 6.94725 26.9709 6.44157 26.5437C5.93589 26.1166 5.59785 25.5241 5.4874 24.8715L5.45859 24.6346L5.44898 24.4057L5.44738 20.7998L5.1865 20.7918C4.06233 20.7259 2.9971 20.2669 2.17705 19.4951C1.357 18.7233 0.834309 17.6879 0.700358 16.5698L0.67475 16.2817L0.666748 15.9984C0.66668 14.7737 1.13461 13.5953 1.97479 12.7042C2.81498 11.8131 3.96391 11.2768 5.1865 11.205L5.44738 11.197V7.59588C5.44738 6.20826 6.45889 5.05592 7.78409 4.83345L8.01936 4.80464L8.24983 4.79504L11.8493 4.79344L11.8589 4.51976C11.9249 3.39558 12.3838 2.33035 13.1556 1.5103C13.9274 0.690252 14.9629 0.167562 16.081 0.0336108L16.3691 0.00800303L16.6523 4.43941e-07ZM16.6523 2.40072C16.0556 2.40075 15.4802 2.62306 15.0384 3.0243C14.5966 3.42554 14.3201 3.97694 14.2628 4.57097L14.2516 4.80304L14.2484 7.19416L8.24983 7.19576C8.15968 7.19591 8.07223 7.22649 8.00164 7.28256C7.93105 7.33862 7.88146 7.41688 7.86091 7.50465L7.8497 7.59588L7.8481 13.5993H5.46819C4.85166 13.5996 4.25887 13.8371 3.81267 14.2625C3.36647 14.688 3.10106 15.2688 3.07143 15.8846C3.0418 16.5005 3.25023 17.1041 3.65352 17.5704C4.05682 18.0367 4.62407 18.33 5.23772 18.3895L5.46819 18.4007H7.8497V24.4057C7.84994 24.4961 7.88075 24.5837 7.93713 24.6543C7.99351 24.7249 8.07213 24.7744 8.1602 24.7946L8.25143 24.8058H14.25L14.2532 27.1986C14.2531 27.8152 14.4903 28.4083 14.9157 28.8548C15.341 29.3013 15.9218 29.567 16.5378 29.5969C17.1537 29.6267 17.7575 29.4184 18.224 29.0151C18.6905 28.6118 18.984 28.0444 19.0435 27.4306L19.0531 27.2018L19.0499 24.8058H25.0549C25.1448 24.8058 25.2321 24.7754 25.3026 24.7197C25.3732 24.6639 25.4229 24.586 25.4438 24.4986L25.455 24.4073L25.4534 20.7998H24.6163L24.3283 20.7902C23.1573 20.7086 22.0567 20.2012 21.2341 19.3639C20.4115 18.5265 19.9238 17.4171 19.8629 16.2449L19.8565 15.96L19.8661 15.6719C19.9459 14.506 20.4482 13.4093 21.2788 12.5873C22.1094 11.7652 23.2112 11.2743 24.3779 11.2066L24.6548 11.1986H25.4518V7.59588C25.452 7.5239 25.4328 7.4532 25.3961 7.39123C25.3595 7.32927 25.3069 7.27832 25.2437 7.24377L25.1445 7.20696L25.0533 7.19576L19.0483 7.19416L19.0515 4.80144C19.0515 4.16473 18.7985 3.5541 18.3483 3.10388C17.8981 2.65365 17.2875 2.40072 16.6507 2.40072H16.6523Z" fill="url(#paint0_linear_1362_217)"/>
	<defs>
		<linearGradient id="paint0_linear_1362_217" x1="14.2612" y1="0" x2="14.2612" y2="32" gradientUnits="userSpaceOnUse">
			<stop stop-color="#6563DD"/>
			<stop offset="1" stop-color="#9599FF"/>
		</linearGradient>
	</defs>
</svg>
