<svg width="80" height="80" viewBox="0 0 80 80" fill="none" xmlns="http://www.w3.org/2000/svg">    <path d="M0 19.2C0 12.4794 0 9.11905 1.30792 6.55211C2.4584 4.29417 4.29417 2.4584 6.55211 1.30792C9.11905 0 12.4794 0 19.2 0H60.8C67.5206 0 70.8809 0 73.4479 1.30792C75.7058 2.4584 77.5416 4.29417 78.6921 6.55211C80 9.11905 80 12.4794 80 19.2V60.8C80 67.5206 80 70.8809 78.6921 73.4479C77.5416 75.7058 75.7058 77.5416 73.4479 78.6921C70.8809 80 67.5206 80 60.8 80H19.2C12.4794 80 9.11905 80 6.55211 78.6921C4.29417 77.5416 2.4584 75.7058 1.30792 73.4479C0 70.8809 0 67.5206 0 60.8V19.2Z" fill="white"/>    <path d="M49.3333 44.24V33.3333C49.3333 30.3867 46.9467 28 44 28C41.0533 28 38.6667 30.3867 38.6667 33.3333V46.6667C38.6667 48.1333 37.4667 49.3333 36 49.3333C34.5333 49.3333 33.3333 48.1333 33.3333 46.6667V35.76C34.88 35.2 36 33.7333 36 32C36 29.7867 34.2133 28 32 28C29.7867 28 28 29.7867 28 32C28 33.7333 29.12 35.2 30.6667 35.76V46.6667C30.6667 49.6133 33.0533 52 36 52C38.9467 52 41.3333 49.6133 41.3333 46.6667V33.3333C41.3333 31.8667 42.5333 30.6667 44 30.6667C45.4667 30.6667 46.6667 31.8667 46.6667 33.3333V44.24C45.7787 44.5546 45.0305 45.1729 44.5542 45.9856C44.0779 46.7984 43.9042 47.7534 44.0637 48.6818C44.2232 49.6102 44.7058 50.4524 45.426 51.0596C46.1463 51.6668 47.058 51.9998 48 52C50.2133 52 52 50.2133 52 48C52 46.2667 50.88 44.8 49.3333 44.24ZM32 33.3333C31.2667 33.3333 30.6667 32.7333 30.6667 32C30.6667 31.2667 31.2667 30.6667 32 30.6667C32.7333 30.6667 33.3333 31.2667 33.3333 32C33.3333 32.7333 32.7333 33.3333 32 33.3333ZM48 49.3333C47.2667 49.3333 46.6667 48.7333 46.6667 48C46.6667 47.2667 47.2667 46.6667 48 46.6667C48.7333 46.6667 49.3333 47.2667 49.3333 48C49.3333 48.7333 48.7333 49.3333 48 49.3333Z" fill="url(#paint0_linear_87_4075)"/>    <defs>        <linearGradient id="paint0_linear_87_4075" x1="40" y1="27.3448" x2="40" y2="52.6552" gradientUnits="userSpaceOnUse">            <stop stop-color="#ED827E"/>            <stop offset="1" stop-color="#DC6876"/>        </linearGradient>    </defs></svg>