<svg width="24" height="24" viewBox="0 0 24 24" fill="none" xmlns="http://www.w3.org/2000/svg">    <path d="M21.3333 16.24V5.33333C21.3333 2.38667 18.9467 0 16 0C13.0533 0 10.6667 2.38667 10.6667 5.33333V18.6667C10.6667 20.1333 9.46667 21.3333 8 21.3333C6.53333 21.3333 5.33333 20.1333 5.33333 18.6667V7.76C6.88 7.2 8 5.73333 8 4C8 1.78667 6.21333 0 4 0C1.78667 0 0 1.78667 0 4C0 5.73333 1.12 7.2 2.66667 7.76V18.6667C2.66667 21.6133 5.05333 24 8 24C10.9467 24 13.3333 21.6133 13.3333 18.6667V5.33333C13.3333 3.86667 14.5333 2.66667 16 2.66667C17.4667 2.66667 18.6667 3.86667 18.6667 5.33333V16.24C17.7787 16.5546 17.0305 17.1729 16.5542 17.9856C16.0779 18.7984 15.9042 19.7534 16.0637 20.6818C16.2232 21.6102 16.7058 22.4524 17.426 23.0596C18.1463 23.6668 19.058 23.9998 20 24C22.2133 24 24 22.2133 24 20C24 18.2667 22.88 16.8 21.3333 16.24ZM4 5.33333C3.26667 5.33333 2.66667 4.73333 2.66667 4C2.66667 3.26667 3.26667 2.66667 4 2.66667C4.73333 2.66667 5.33333 3.26667 5.33333 4C5.33333 4.73333 4.73333 5.33333 4 5.33333ZM20 21.3333C19.2667 21.3333 18.6667 20.7333 18.6667 20C18.6667 19.2667 19.2667 18.6667 20 18.6667C20.7333 18.6667 21.3333 19.2667 21.3333 20C21.3333 20.7333 20.7333 21.3333 20 21.3333Z" fill="url(#paint0_linear_1362_219)"/>    <defs>        <linearGradient id="paint0_linear_1362_219" x1="12" y1="-0.655249" x2="12" y2="24.6552" gradientUnits="userSpaceOnUse">            <stop stop-color="#ED827E"/>            <stop offset="1" stop-color="#DC6876"/>        </linearGradient>    </defs></svg>