<svg width="80" height="80" viewBox="0 0 80 80" fill="none" xmlns="http://www.w3.org/2000/svg">	<path d="M0 19.2C0 12.4794 0 9.11905 1.30792 6.55211C2.4584 4.29417 4.29417 2.4584 6.55211 1.30792C9.11905 0 12.4794 0 19.2 0H60.8C67.5206 0 70.8809 0 73.4479 1.30792C75.7058 2.4584 77.5416 4.29417 78.6921 6.55211C80 9.11905 80 12.4794 80 19.2V60.8C80 67.5206 80 70.8809 78.6921 73.4479C77.5416 75.7058 75.7058 77.5416 73.4479 78.6921C70.8809 80 67.5206 80 60.8 80H19.2C12.4794 80 9.11905 80 6.55211 78.6921C4.29417 77.5416 2.4584 75.7058 1.30792 73.4479C0 70.8809 0 67.5206 0 60.8V19.2Z" fill="white"/>	<path fill-rule="evenodd" clip-rule="evenodd" d="M40 26.6667C36.3181 26.6667 33.3333 29.6515 33.3333 33.3334C33.3333 37.0153 36.3181 40 40 40C43.6819 40 46.6667 37.0153 46.6667 33.3334C46.6667 29.6515 43.6819 26.6667 40 26.6667ZM36 33.3334C36 31.1242 37.7909 29.3334 40 29.3334C42.2091 29.3334 44 31.1242 44 33.3334C44 35.5425 42.2091 37.3334 40 37.3334C37.7909 37.3334 36 35.5425 36 33.3334Z" fill="url(#paint0_linear_87_4075)"/>	<path d="M34.6667 42.6667C32.8986 42.6667 31.2029 43.3691 29.9526 44.6193C28.7024 45.8696 28 47.5652 28 49.3334V52C28 52.7364 28.597 53.3334 29.3333 53.3334C30.0697 53.3334 30.6667 52.7364 30.6667 52V49.3334C30.6667 48.2725 31.0881 47.2551 31.8382 46.5049C32.5884 45.7548 33.6058 45.3334 34.6667 45.3334H45.3333C46.3942 45.3334 47.4116 45.7548 48.1618 46.5049C48.9119 47.2551 49.3333 48.2725 49.3333 49.3334V52C49.3333 52.7364 49.9303 53.3334 50.6667 53.3334C51.403 53.3334 52 52.7364 52 52V49.3334C52 47.5652 51.2976 45.8696 50.0474 44.6193C48.7971 43.3691 47.1014 42.6667 45.3333 42.6667H34.6667Z" fill="url(#paint1_linear_87_4075)"/>	<defs>		<linearGradient id="paint0_linear_87_4075" x1="40" y1="26.6667" x2="40" y2="53.3334" gradientUnits="userSpaceOnUse">			<stop stop-color="#EDAA8A"/>			<stop offset="1" stop-color="#DC886E"/>		</linearGradient>		<linearGradient id="paint1_linear_87_4075" x1="40" y1="26.6667" x2="40" y2="53.3334" gradientUnits="userSpaceOnUse">			<stop stop-color="#EDAA8A"/>			<stop offset="1" stop-color="#DC886E"/>		</linearGradient>	</defs></svg>