<svg width="24" height="28" viewBox="0 0 24 28" fill="none" xmlns="http://www.w3.org/2000/svg">	<path fill-rule="evenodd" clip-rule="evenodd" d="M12 0.666687C8.3181 0.666687 5.33333 3.65146 5.33333 7.33335C5.33333 11.0153 8.3181 14 12 14C15.6819 14 18.6667 11.0153 18.6667 7.33335C18.6667 3.65146 15.6819 0.666687 12 0.666687ZM8 7.33335C8 5.12421 9.79086 3.33335 12 3.33335C14.2091 3.33335 16 5.12421 16 7.33335C16 9.54249 14.2091 11.3334 12 11.3334C9.79086 11.3334 8 9.54249 8 7.33335Z" fill="url(#paint0_linear_1362_58)"/>	<path d="M6.66667 16.6667C4.89856 16.6667 3.20286 17.3691 1.95262 18.6193C0.702379 19.8696 0 21.5652 0 23.3334V26C0 26.7364 0.596954 27.3334 1.33333 27.3334C2.06971 27.3334 2.66667 26.7364 2.66667 26V23.3334C2.66667 22.2725 3.08809 21.2551 3.83824 20.5049C4.58839 19.7548 5.6058 19.3334 6.66667 19.3334H17.3333C18.3942 19.3334 19.4116 19.7548 20.1618 20.5049C20.9119 21.2551 21.3333 22.2725 21.3333 23.3334V26C21.3333 26.7364 21.9303 27.3334 22.6667 27.3334C23.403 27.3334 24 26.7364 24 26V23.3334C24 21.5652 23.2976 19.8696 22.0474 18.6193C20.7971 17.3691 19.1014 16.6667 17.3333 16.6667H6.66667Z" fill="url(#paint1_linear_1362_58)"/>	<defs>		<linearGradient id="paint0_linear_1362_58" x1="12" y1="0.666687" x2="12" y2="27.3334" gradientUnits="userSpaceOnUse">			<stop stop-color="#EDAA8A"/>			<stop offset="1" stop-color="#DC886E"/>		</linearGradient>		<linearGradient id="paint1_linear_1362_58" x1="12" y1="0.666687" x2="12" y2="27.3334" gradientUnits="userSpaceOnUse">			<stop stop-color="#EDAA8A"/>			<stop offset="1" stop-color="#DC886E"/>		</linearGradient>	</defs></svg>