<svg width="24" height="24" viewBox="0 0 24 24" fill="none" xmlns="http://www.w3.org/2000/svg">
    <path d="M11.7399 5.72032H15.6194C17.6469 5.72032 19.2905 7.36389 19.2905 9.39134V11.3186C19.2905 11.9269 18.7974 12.4199 18.1892 12.4199H17.0878C16.4796 12.4199 15.9865 11.9269 15.9865 11.3186V9.39134C15.9865 9.18859 15.8222 9.02424 15.6194 9.02424H5.81317C4.7585 9.02424 4.30704 7.6847 5.14654 7.0463L9.97198 3.37684C10.697 2.82546 11.7399 3.34256 11.7399 4.25347V5.72032Z"
          fill="black"/>
    <path d="M11.7399 5.72032H15.6194C17.6469 5.72032 19.2905 7.36389 19.2905 9.39134V11.3186C19.2905 11.9269 18.7974 12.4199 18.1892 12.4199H17.0878C16.4796 12.4199 15.9865 11.9269 15.9865 11.3186V9.39134C15.9865 9.18859 15.8222 9.02424 15.6194 9.02424H5.81317C4.7585 9.02424 4.30704 7.6847 5.14654 7.0463L9.97198 3.37684C10.697 2.82546 11.7399 3.34256 11.7399 4.25347V5.72032Z"
          fill="url(#paint0_linear_272_7434)"/>
    <path d="M12.2601 18.2797L8.38056 18.2797C6.35311 18.2797 4.70954 16.6361 4.70954 14.6087L4.70954 12.6814C4.70954 12.0731 5.20261 11.5801 5.81085 11.5801L6.91215 11.5801C7.52038 11.5801 8.01346 12.0731 8.01346 12.6814L8.01346 14.6087C8.01346 14.8114 8.17781 14.9758 8.38056 14.9758L18.1868 14.9758C19.2415 14.9758 19.693 16.3153 18.8535 16.9537L14.028 20.6232C13.303 21.1745 12.2601 20.6574 12.2601 19.7465L12.2601 18.2797Z"
          fill="#C6C9F4"/>
    <defs>
        <linearGradient id="paint0_linear_272_7434" x1="12.0001" y1="3.15015" x2="12.0001" y2="12.4199"
                        gradientUnits="userSpaceOnUse">
            <stop stop-color="#6563DD"/>
            <stop offset="1" stop-color="#9599FF"/>
        </linearGradient>
    </defs>
</svg>
