<svg width="512" height="512" viewBox="0 0 512 512" fill="none"
    xmlns="http://www.w3.org/2000/svg">
    <circle cx="256" cy="256" r="256" fill="#7EE989"/>
    <path fill-rule="evenodd" clip-rule="evenodd" d="M396.211 359.648C364.45 402.542 313.474 430.349 256.003 430.349C159.715 430.349 81.6573 352.292 81.6573 256.003C81.6573 250.83 81.8827 245.709 82.3241 240.65H50.2199C49.8471 245.719 49.6573 250.839 49.6573 256.003C49.6573 369.965 142.042 462.349 256.003 462.349C332.185 462.349 398.725 421.065 434.47 359.648H396.211ZM429.763 270.4C430.151 265.652 430.349 260.851 430.349 256.003C430.349 159.715 352.292 81.6573 256.003 81.6573C195.047 81.6573 141.397 112.94 110.232 160.326H73.132C107.622 94.539 176.571 49.6573 256.003 49.6573C369.965 49.6573 462.349 142.041 462.349 256.003C462.349 260.843 462.182 265.643 461.855 270.4H429.763Z" fill="#2E3A59"/>
    <path d="M203.143 171.064L256.576 316.157L309.454 171.064H349.807L274.944 359.737H237.93L162.789 171.064H203.143Z" fill="#2E3A59"/>
    <path fill-rule="evenodd" clip-rule="evenodd" d="M132.558 240.65H59.1777V270.399H132.558V240.65ZM385.273 270.399H453.359V240.65H385.273V270.399Z" fill="#2E3A59"/>
</svg>