<svg viewBox="0 0 32 32" fill="none" xmlns="http://www.w3.org/2000/svg">
    <circle cx="16" cy="16" r="16" fill="#209D7F"/>
    <path fill-rule="evenodd" clip-rule="evenodd" d="M25.6132 18.7655C25.8648 17.8879 25.9997 16.96 25.9997 15.9999C25.9997 10.4766 21.5231 6 15.9999 6C12.2237 6 8.93675 8.09337 7.23589 11.1811L10.3759 13.832C11.2455 11.5756 13.4375 9.97337 15.9999 9.97337C18.2462 9.97337 20.2067 11.2032 21.2433 13.0249L19.3492 13.5059L22.131 15.8207L25.6132 18.7655ZM24.5867 21.1286C22.8395 24.0473 19.6471 26.0017 15.9999 26.0017C10.4766 26.0017 6 21.5251 6 16.0019C6 15.1726 6.10064 14.3674 6.29186 13.5965L9.25478 16.0985L12.2076 18.5562L10.7322 18.9306C11.7608 20.7784 13.7354 22.0284 15.9999 22.0284C18.4334 22.0284 20.5308 20.5851 21.4829 18.5079L24.5867 21.1286Z" fill="#173937"/>
    <path fill-rule="evenodd" clip-rule="evenodd" d="M25.6137 18.7655C25.8653 17.8879 26.0001 16.96 26.0001 15.9999C26.0001 10.4766 21.5236 6 16.0003 6C12.2242 6 8.93719 8.09337 7.23633 11.1811L10.3764 13.832C11.2459 11.5756 13.4379 9.97337 16.0003 9.97337C18.2466 9.97337 20.2072 11.2032 21.2438 13.0249L19.3497 13.5059L22.1314 15.8207L25.6137 18.7655Z" fill="white"/>
</svg>
