<svg width="56" height="56" viewBox="0 0 56 56" fill="none" xmlns="http://www.w3.org/2000/svg">
<rect width="56" height="56" fill="url(#paint0_linear_380_27865)"/>
<path fill-rule="evenodd" clip-rule="evenodd" d="M16.8161 42.1045C19.8851 44.545 23.7731 46 28.0001 46C37.9406 46 46.0001 37.942 46.0001 28C46.0001 18.058 37.9406 10 28.0001 10C24.4856 10 21.2081 11.0065 18.4376 12.748C27.3566 15.799 39.1226 21.0595 40.9526 25.174C40.5146 25.8295 38.2181 26.539 37.1246 26.8135C36.6701 27.7255 35.3216 30.5305 33.5726 34.4665C35.2121 33.9205 36.3056 32.554 36.5786 31.4605C37.3991 32.0065 40.1321 34.4665 41.4986 36.9265C34.7816 41.1565 21.9536 41.989 16.8161 42.1045ZM15.7721 41.2105C17.3546 38.6065 18.2666 35.5495 18.2666 32.281C18.2666 30.361 17.9516 28.5145 17.3726 26.7895L27.5591 26.2675L16.3616 24.4C15.3416 22.423 13.9496 20.6665 12.2786 19.228C11.8691 19.9585 11.5106 20.7205 11.2061 21.508C14.1536 24.247 15.9986 28.159 15.9986 32.5C15.9986 35.062 15.3551 37.4755 14.2226 39.586C14.7056 40.159 15.2231 40.702 15.7721 41.2105ZM14.2001 16.444C20.7401 18.391 28.3676 21.2485 36.3071 24.6265C32.0996 21.2275 23.0996 17.734 15.3236 15.2215C14.9306 15.6115 14.5556 16.0195 14.2001 16.444Z" fill="white"/>
<defs>
<linearGradient id="paint0_linear_380_27865" x1="-0.519055" y1="4.28267e-07" x2="55.4771" y2="56.5171" gradientUnits="userSpaceOnUse">
<stop stop-color="#7AFF9F"/>
<stop offset="1" stop-color="#00BD88"/>
</linearGradient>
</defs>
</svg>
