<svg width="156" height="36" viewBox="0 0 156 36" fill="none" xmlns="http://www.w3.org/2000/svg">
    <path d="M24.4286 3.85715C23.7889 4.4968 22.6914 4.69137 22.0517 4.05172L19.2728 1.2728C18.5699 0.569857 17.4302 0.569856 16.7272 1.2728L13.9483 4.05172C13.3087 4.69138 12.2111 4.4968 11.5714 3.85715C9.4412 1.7269 5.9874 1.72691 3.85716 3.85715C1.72692 5.98739 1.72691 9.44119 3.85716 11.5714C4.49682 12.2111 4.69139 13.3086 4.05174 13.9483L1.27281 16.7272C0.56987 17.4302 0.56987 18.5699 1.27281 19.2728L4.05173 22.0517C4.69139 22.6914 5.78894 22.4968 6.42859 21.8571C8.55883 19.7269 12.0126 19.7269 14.1429 21.8571C16.2731 23.9874 16.2731 27.4412 14.1429 29.5714C13.5032 30.2111 13.3087 31.3086 13.9483 31.9483L16.7272 34.7272C17.4302 35.4302 18.5699 35.4302 19.2728 34.7272L22.0517 31.9483C22.6914 31.3086 23.7889 31.5032 24.4286 32.1429C26.5588 34.2731 30.0126 34.2731 32.1429 32.1429C34.2731 30.0126 34.2731 26.5588 32.1429 24.4286C31.5032 23.7889 31.3086 22.6914 31.9483 22.0517L34.7272 19.2728C35.4302 18.5699 35.4302 17.4302 34.7272 16.7272L31.9483 13.9483C31.3087 13.3086 31.5032 12.2111 32.1429 11.5714C34.2731 9.4412 34.2731 5.9874 32.1429 3.85715C30.0126 1.7269 26.5588 1.72691 24.4286 3.85715Z"
          fill="#7075E9"/>
    <path d="M57.162 15.144C57.162 15.816 57 16.446 56.676 17.034C56.364 17.622 55.866 18.096 55.182 18.456C54.51 18.816 53.658 18.996 52.626 18.996H50.52V23.82H48V11.256H52.626C53.598 11.256 54.426 11.424 55.11 11.76C55.794 12.096 56.304 12.558 56.64 13.146C56.988 13.734 57.162 14.4 57.162 15.144ZM52.518 16.962C53.214 16.962 53.73 16.806 54.066 16.494C54.402 16.17 54.57 15.72 54.57 15.144C54.57 13.92 53.886 13.308 52.518 13.308H50.52V16.962H52.518Z"
          fill="#363870"/>
    <path d="M68.1852 13.848V23.82H65.6472V22.56C65.3232 22.992 64.8972 23.334 64.3692 23.586C63.8532 23.826 63.2892 23.946 62.6772 23.946C61.8972 23.946 61.2072 23.784 60.6072 23.46C60.0072 23.124 59.5332 22.638 59.1852 22.002C58.8492 21.354 58.6812 20.586 58.6812 19.698V13.848H61.2012V19.338C61.2012 20.13 61.3992 20.742 61.7952 21.174C62.1912 21.594 62.7312 21.804 63.4152 21.804C64.1112 21.804 64.6572 21.594 65.0532 21.174C65.4492 20.742 65.6472 20.13 65.6472 19.338V13.848H68.1852Z"
          fill="#363870"/>
    <path d="M72.7956 21.75H77.2416V23.82H69.9336V21.786L74.2896 15.918H69.9516V13.848H77.1876V15.882L72.7956 21.75Z"
          fill="#363870"/>
    <path d="M81.3167 21.75H85.7627V23.82H78.4547V21.786L82.8107 15.918H78.4727V13.848H85.7087V15.882L81.3167 21.75Z"
          fill="#363870"/>
    <path d="M90.0539 10.5V23.82H87.5339V10.5H90.0539Z" fill="#363870"/>
    <path d="M101.634 18.618C101.634 18.978 101.61 19.302 101.562 19.59H94.2717C94.3317 20.31 94.5837 20.874 95.0277 21.282C95.4717 21.69 96.0177 21.894 96.6657 21.894C97.6017 21.894 98.2677 21.492 98.6637 20.688H101.382C101.094 21.648 100.542 22.44 99.7257 23.064C98.9097 23.676 97.9077 23.982 96.7197 23.982C95.7597 23.982 94.8957 23.772 94.1277 23.352C93.3717 22.92 92.7777 22.314 92.3457 21.534C91.9257 20.754 91.7157 19.854 91.7157 18.834C91.7157 17.802 91.9257 16.896 92.3457 16.116C92.7657 15.336 93.3537 14.736 94.1097 14.316C94.8657 13.896 95.7357 13.686 96.7197 13.686C97.6677 13.686 98.5137 13.89 99.2577 14.298C100.014 14.706 100.596 15.288 101.004 16.044C101.424 16.788 101.634 17.646 101.634 18.618ZM99.0237 17.898C99.0117 17.25 98.7777 16.734 98.3217 16.35C97.8657 15.954 97.3077 15.756 96.6477 15.756C96.0237 15.756 95.4957 15.948 95.0637 16.332C94.6437 16.704 94.3857 17.226 94.2897 17.898H99.0237Z"
          fill="#363870"/>
    <path d="M111.74 23.946C110.864 23.946 110.072 23.796 109.364 23.496C108.668 23.196 108.116 22.764 107.708 22.2C107.3 21.636 107.09 20.97 107.078 20.202H109.778C109.814 20.718 109.994 21.126 110.318 21.426C110.654 21.726 111.11 21.876 111.686 21.876C112.274 21.876 112.736 21.738 113.072 21.462C113.408 21.174 113.576 20.802 113.576 20.346C113.576 19.974 113.462 19.668 113.234 19.428C113.006 19.188 112.718 19.002 112.37 18.87C112.034 18.726 111.566 18.57 110.966 18.402C110.15 18.162 109.484 17.928 108.968 17.7C108.464 17.46 108.026 17.106 107.654 16.638C107.294 16.158 107.114 15.522 107.114 14.73C107.114 13.986 107.3 13.338 107.672 12.786C108.044 12.234 108.566 11.814 109.238 11.526C109.91 11.226 110.678 11.076 111.542 11.076C112.838 11.076 113.888 11.394 114.692 12.03C115.508 12.654 115.958 13.53 116.042 14.658H113.27C113.246 14.226 113.06 13.872 112.712 13.596C112.376 13.308 111.926 13.164 111.362 13.164C110.87 13.164 110.474 13.29 110.174 13.542C109.886 13.794 109.742 14.16 109.742 14.64C109.742 14.976 109.85 15.258 110.066 15.486C110.294 15.702 110.57 15.882 110.894 16.026C111.23 16.158 111.698 16.314 112.298 16.494C113.114 16.734 113.78 16.974 114.296 17.214C114.812 17.454 115.256 17.814 115.628 18.294C116 18.774 116.186 19.404 116.186 20.184C116.186 20.856 116.012 21.48 115.664 22.056C115.316 22.632 114.806 23.094 114.134 23.442C113.462 23.778 112.664 23.946 111.74 23.946Z"
          fill="#363870"/>
    <path d="M132.015 13.848L129.099 23.82H126.381L124.563 16.854L122.745 23.82H120.009L117.075 13.848H119.631L121.395 21.444L123.303 13.848H125.967L127.839 21.426L129.603 13.848H132.015Z"
          fill="#363870"/>
    <path d="M132.55 18.798C132.55 17.79 132.748 16.896 133.144 16.116C133.552 15.336 134.098 14.736 134.782 14.316C135.478 13.896 136.252 13.686 137.104 13.686C137.848 13.686 138.496 13.836 139.048 14.136C139.612 14.436 140.062 14.814 140.398 15.27V13.848H142.936V23.82H140.398V22.362C140.074 22.83 139.624 23.22 139.048 23.532C138.484 23.832 137.83 23.982 137.086 23.982C136.246 23.982 135.478 23.766 134.782 23.334C134.098 22.902 133.552 22.296 133.144 21.516C132.748 20.724 132.55 19.818 132.55 18.798ZM140.398 18.834C140.398 18.222 140.278 17.7 140.038 17.268C139.798 16.824 139.474 16.488 139.066 16.26C138.658 16.02 138.22 15.9 137.752 15.9C137.284 15.9 136.852 16.014 136.456 16.242C136.06 16.47 135.736 16.806 135.484 17.25C135.244 17.682 135.124 18.198 135.124 18.798C135.124 19.398 135.244 19.926 135.484 20.382C135.736 20.826 136.06 21.168 136.456 21.408C136.864 21.648 137.296 21.768 137.752 21.768C138.22 21.768 138.658 21.654 139.066 21.426C139.474 21.186 139.798 20.85 140.038 20.418C140.278 19.974 140.398 19.446 140.398 18.834Z"
          fill="#363870"/>
    <path d="M147.738 15.288C148.062 14.832 148.506 14.454 149.07 14.154C149.646 13.842 150.3 13.686 151.032 13.686C151.884 13.686 152.652 13.896 153.336 14.316C154.032 14.736 154.578 15.336 154.974 16.116C155.382 16.884 155.586 17.778 155.586 18.798C155.586 19.818 155.382 20.724 154.974 21.516C154.578 22.296 154.032 22.902 153.336 23.334C152.652 23.766 151.884 23.982 151.032 23.982C150.3 23.982 149.652 23.832 149.088 23.532C148.536 23.232 148.086 22.854 147.738 22.398V28.572H145.218V13.848H147.738V15.288ZM153.012 18.798C153.012 18.198 152.886 17.682 152.634 17.25C152.394 16.806 152.07 16.47 151.662 16.242C151.266 16.014 150.834 15.9 150.366 15.9C149.91 15.9 149.478 16.02 149.07 16.26C148.674 16.488 148.35 16.824 148.098 17.268C147.858 17.712 147.738 18.234 147.738 18.834C147.738 19.434 147.858 19.956 148.098 20.4C148.35 20.844 148.674 21.186 149.07 21.426C149.478 21.654 149.91 21.768 150.366 21.768C150.834 21.768 151.266 21.648 151.662 21.408C152.07 21.168 152.394 20.826 152.634 20.382C152.886 19.938 153.012 19.41 153.012 18.798Z"
          fill="#363870"/>
</svg>
